<?xml version="1.0" encoding="utf-8" standalone="no"?>
<!DOCTYPE svg PUBLIC "-//W3C//DTD SVG 1.1//EN"
  "http://www.w3.org/Graphics/SVG/1.1/DTD/svg11.dtd">
<!-- Created with matplotlib (https://matplotlib.org/) -->
<svg height="583.92pt" version="1.1" viewBox="0 0 1108.8 583.92" width="1108.8pt" xmlns="http://www.w3.org/2000/svg" xmlns:xlink="http://www.w3.org/1999/xlink">
 <defs>
  <style type="text/css">
*{stroke-linecap:butt;stroke-linejoin:round;}
  </style>
 </defs>
 <g id="figure_1">
  <g id="patch_1">
   <path d="M 0 583.92 
L 1108.8 583.92 
L 1108.8 0 
L 0 0 
z
" style="fill:#ffffff;"/>
  </g>
  <g id="axes_1">
   <g id="patch_2">
    <path d="M 138.6 519.6888 
L 997.92 519.6888 
L 997.92 70.0704 
L 138.6 70.0704 
z
" style="fill:#ffffff;"/>
   </g>
   <g id="matplotlib.axis_1">
    <g id="xtick_1">
     <g id="line2d_1">
      <defs>
       <path d="M 0 0 
L 0 3.5 
" id="m838e70eecd" style="stroke:#000000;stroke-width:0.8;"/>
      </defs>
      <g>
       <use style="stroke:#000000;stroke-width:0.8;" x="177.66" xlink:href="#m838e70eecd" y="519.6888"/>
      </g>
     </g>
     <g id="text_1">
      <!-- 0 -->
      <defs>
       <path d="M 31.78125 66.40625 
Q 24.171875 66.40625 20.328125 58.90625 
Q 16.5 51.421875 16.5 36.375 
Q 16.5 21.390625 20.328125 13.890625 
Q 24.171875 6.390625 31.78125 6.390625 
Q 39.453125 6.390625 43.28125 13.890625 
Q 47.125 21.390625 47.125 36.375 
Q 47.125 51.421875 43.28125 58.90625 
Q 39.453125 66.40625 31.78125 66.40625 
z
M 31.78125 74.21875 
Q 44.046875 74.21875 50.515625 64.515625 
Q 56.984375 54.828125 56.984375 36.375 
Q 56.984375 17.96875 50.515625 8.265625 
Q 44.046875 -1.421875 31.78125 -1.421875 
Q 19.53125 -1.421875 13.0625 8.265625 
Q 6.59375 17.96875 6.59375 36.375 
Q 6.59375 54.828125 13.0625 64.515625 
Q 19.53125 74.21875 31.78125 74.21875 
z
" id="DejaVuSans-48"/>
      </defs>
      <g transform="translate(174.47875 534.287237)scale(0.1 -0.1)">
       <use xlink:href="#DejaVuSans-48"/>
      </g>
     </g>
    </g>
    <g id="xtick_2">
     <g id="line2d_2">
      <g>
       <use style="stroke:#000000;stroke-width:0.8;" x="275.31" xlink:href="#m838e70eecd" y="519.6888"/>
      </g>
     </g>
     <g id="text_2">
      <!-- 100 -->
      <defs>
       <path d="M 12.40625 8.296875 
L 28.515625 8.296875 
L 28.515625 63.921875 
L 10.984375 60.40625 
L 10.984375 69.390625 
L 28.421875 72.90625 
L 38.28125 72.90625 
L 38.28125 8.296875 
L 54.390625 8.296875 
L 54.390625 0 
L 12.40625 0 
z
" id="DejaVuSans-49"/>
      </defs>
      <g transform="translate(265.76625 534.287237)scale(0.1 -0.1)">
       <use xlink:href="#DejaVuSans-49"/>
       <use x="63.623047" xlink:href="#DejaVuSans-48"/>
       <use x="127.246094" xlink:href="#DejaVuSans-48"/>
      </g>
     </g>
    </g>
    <g id="xtick_3">
     <g id="line2d_3">
      <g>
       <use style="stroke:#000000;stroke-width:0.8;" x="372.96" xlink:href="#m838e70eecd" y="519.6888"/>
      </g>
     </g>
     <g id="text_3">
      <!-- 200 -->
      <defs>
       <path d="M 19.1875 8.296875 
L 53.609375 8.296875 
L 53.609375 0 
L 7.328125 0 
L 7.328125 8.296875 
Q 12.9375 14.109375 22.625 23.890625 
Q 32.328125 33.6875 34.8125 36.53125 
Q 39.546875 41.84375 41.421875 45.53125 
Q 43.3125 49.21875 43.3125 52.78125 
Q 43.3125 58.59375 39.234375 62.25 
Q 35.15625 65.921875 28.609375 65.921875 
Q 23.96875 65.921875 18.8125 64.3125 
Q 13.671875 62.703125 7.8125 59.421875 
L 7.8125 69.390625 
Q 13.765625 71.78125 18.9375 73 
Q 24.125 74.21875 28.421875 74.21875 
Q 39.75 74.21875 46.484375 68.546875 
Q 53.21875 62.890625 53.21875 53.421875 
Q 53.21875 48.921875 51.53125 44.890625 
Q 49.859375 40.875 45.40625 35.40625 
Q 44.1875 33.984375 37.640625 27.21875 
Q 31.109375 20.453125 19.1875 8.296875 
z
" id="DejaVuSans-50"/>
      </defs>
      <g transform="translate(363.41625 534.287237)scale(0.1 -0.1)">
       <use xlink:href="#DejaVuSans-50"/>
       <use x="63.623047" xlink:href="#DejaVuSans-48"/>
       <use x="127.246094" xlink:href="#DejaVuSans-48"/>
      </g>
     </g>
    </g>
    <g id="xtick_4">
     <g id="line2d_4">
      <g>
       <use style="stroke:#000000;stroke-width:0.8;" x="470.61" xlink:href="#m838e70eecd" y="519.6888"/>
      </g>
     </g>
     <g id="text_4">
      <!-- 300 -->
      <defs>
       <path d="M 40.578125 39.3125 
Q 47.65625 37.796875 51.625 33 
Q 55.609375 28.21875 55.609375 21.1875 
Q 55.609375 10.40625 48.1875 4.484375 
Q 40.765625 -1.421875 27.09375 -1.421875 
Q 22.515625 -1.421875 17.65625 -0.515625 
Q 12.796875 0.390625 7.625 2.203125 
L 7.625 11.71875 
Q 11.71875 9.328125 16.59375 8.109375 
Q 21.484375 6.890625 26.8125 6.890625 
Q 36.078125 6.890625 40.9375 10.546875 
Q 45.796875 14.203125 45.796875 21.1875 
Q 45.796875 27.640625 41.28125 31.265625 
Q 36.765625 34.90625 28.71875 34.90625 
L 20.21875 34.90625 
L 20.21875 43.015625 
L 29.109375 43.015625 
Q 36.375 43.015625 40.234375 45.921875 
Q 44.09375 48.828125 44.09375 54.296875 
Q 44.09375 59.90625 40.109375 62.90625 
Q 36.140625 65.921875 28.71875 65.921875 
Q 24.65625 65.921875 20.015625 65.03125 
Q 15.375 64.15625 9.8125 62.3125 
L 9.8125 71.09375 
Q 15.4375 72.65625 20.34375 73.4375 
Q 25.25 74.21875 29.59375 74.21875 
Q 40.828125 74.21875 47.359375 69.109375 
Q 53.90625 64.015625 53.90625 55.328125 
Q 53.90625 49.265625 50.4375 45.09375 
Q 46.96875 40.921875 40.578125 39.3125 
z
" id="DejaVuSans-51"/>
      </defs>
      <g transform="translate(461.06625 534.287237)scale(0.1 -0.1)">
       <use xlink:href="#DejaVuSans-51"/>
       <use x="63.623047" xlink:href="#DejaVuSans-48"/>
       <use x="127.246094" xlink:href="#DejaVuSans-48"/>
      </g>
     </g>
    </g>
    <g id="xtick_5">
     <g id="line2d_5">
      <g>
       <use style="stroke:#000000;stroke-width:0.8;" x="568.26" xlink:href="#m838e70eecd" y="519.6888"/>
      </g>
     </g>
     <g id="text_5">
      <!-- 400 -->
      <defs>
       <path d="M 37.796875 64.3125 
L 12.890625 25.390625 
L 37.796875 25.390625 
z
M 35.203125 72.90625 
L 47.609375 72.90625 
L 47.609375 25.390625 
L 58.015625 25.390625 
L 58.015625 17.1875 
L 47.609375 17.1875 
L 47.609375 0 
L 37.796875 0 
L 37.796875 17.1875 
L 4.890625 17.1875 
L 4.890625 26.703125 
z
" id="DejaVuSans-52"/>
      </defs>
      <g transform="translate(558.71625 534.287237)scale(0.1 -0.1)">
       <use xlink:href="#DejaVuSans-52"/>
       <use x="63.623047" xlink:href="#DejaVuSans-48"/>
       <use x="127.246094" xlink:href="#DejaVuSans-48"/>
      </g>
     </g>
    </g>
    <g id="xtick_6">
     <g id="line2d_6">
      <g>
       <use style="stroke:#000000;stroke-width:0.8;" x="665.91" xlink:href="#m838e70eecd" y="519.6888"/>
      </g>
     </g>
     <g id="text_6">
      <!-- 500 -->
      <defs>
       <path d="M 10.796875 72.90625 
L 49.515625 72.90625 
L 49.515625 64.59375 
L 19.828125 64.59375 
L 19.828125 46.734375 
Q 21.96875 47.46875 24.109375 47.828125 
Q 26.265625 48.1875 28.421875 48.1875 
Q 40.625 48.1875 47.75 41.5 
Q 54.890625 34.8125 54.890625 23.390625 
Q 54.890625 11.625 47.5625 5.09375 
Q 40.234375 -1.421875 26.90625 -1.421875 
Q 22.3125 -1.421875 17.546875 -0.640625 
Q 12.796875 0.140625 7.71875 1.703125 
L 7.71875 11.625 
Q 12.109375 9.234375 16.796875 8.0625 
Q 21.484375 6.890625 26.703125 6.890625 
Q 35.15625 6.890625 40.078125 11.328125 
Q 45.015625 15.765625 45.015625 23.390625 
Q 45.015625 31 40.078125 35.4375 
Q 35.15625 39.890625 26.703125 39.890625 
Q 22.75 39.890625 18.8125 39.015625 
Q 14.890625 38.140625 10.796875 36.28125 
z
" id="DejaVuSans-53"/>
      </defs>
      <g transform="translate(656.36625 534.287237)scale(0.1 -0.1)">
       <use xlink:href="#DejaVuSans-53"/>
       <use x="63.623047" xlink:href="#DejaVuSans-48"/>
       <use x="127.246094" xlink:href="#DejaVuSans-48"/>
      </g>
     </g>
    </g>
    <g id="xtick_7">
     <g id="line2d_7">
      <g>
       <use style="stroke:#000000;stroke-width:0.8;" x="763.56" xlink:href="#m838e70eecd" y="519.6888"/>
      </g>
     </g>
     <g id="text_7">
      <!-- 600 -->
      <defs>
       <path d="M 33.015625 40.375 
Q 26.375 40.375 22.484375 35.828125 
Q 18.609375 31.296875 18.609375 23.390625 
Q 18.609375 15.53125 22.484375 10.953125 
Q 26.375 6.390625 33.015625 6.390625 
Q 39.65625 6.390625 43.53125 10.953125 
Q 47.40625 15.53125 47.40625 23.390625 
Q 47.40625 31.296875 43.53125 35.828125 
Q 39.65625 40.375 33.015625 40.375 
z
M 52.59375 71.296875 
L 52.59375 62.3125 
Q 48.875 64.0625 45.09375 64.984375 
Q 41.3125 65.921875 37.59375 65.921875 
Q 27.828125 65.921875 22.671875 59.328125 
Q 17.53125 52.734375 16.796875 39.40625 
Q 19.671875 43.65625 24.015625 45.921875 
Q 28.375 48.1875 33.59375 48.1875 
Q 44.578125 48.1875 50.953125 41.515625 
Q 57.328125 34.859375 57.328125 23.390625 
Q 57.328125 12.15625 50.6875 5.359375 
Q 44.046875 -1.421875 33.015625 -1.421875 
Q 20.359375 -1.421875 13.671875 8.265625 
Q 6.984375 17.96875 6.984375 36.375 
Q 6.984375 53.65625 15.1875 63.9375 
Q 23.390625 74.21875 37.203125 74.21875 
Q 40.921875 74.21875 44.703125 73.484375 
Q 48.484375 72.75 52.59375 71.296875 
z
" id="DejaVuSans-54"/>
      </defs>
      <g transform="translate(754.01625 534.287237)scale(0.1 -0.1)">
       <use xlink:href="#DejaVuSans-54"/>
       <use x="63.623047" xlink:href="#DejaVuSans-48"/>
       <use x="127.246094" xlink:href="#DejaVuSans-48"/>
      </g>
     </g>
    </g>
    <g id="xtick_8">
     <g id="line2d_8">
      <g>
       <use style="stroke:#000000;stroke-width:0.8;" x="861.21" xlink:href="#m838e70eecd" y="519.6888"/>
      </g>
     </g>
     <g id="text_8">
      <!-- 700 -->
      <defs>
       <path d="M 8.203125 72.90625 
L 55.078125 72.90625 
L 55.078125 68.703125 
L 28.609375 0 
L 18.3125 0 
L 43.21875 64.59375 
L 8.203125 64.59375 
z
" id="DejaVuSans-55"/>
      </defs>
      <g transform="translate(851.66625 534.287237)scale(0.1 -0.1)">
       <use xlink:href="#DejaVuSans-55"/>
       <use x="63.623047" xlink:href="#DejaVuSans-48"/>
       <use x="127.246094" xlink:href="#DejaVuSans-48"/>
      </g>
     </g>
    </g>
    <g id="xtick_9">
     <g id="line2d_9">
      <g>
       <use style="stroke:#000000;stroke-width:0.8;" x="958.86" xlink:href="#m838e70eecd" y="519.6888"/>
      </g>
     </g>
     <g id="text_9">
      <!-- 800 -->
      <defs>
       <path d="M 31.78125 34.625 
Q 24.75 34.625 20.71875 30.859375 
Q 16.703125 27.09375 16.703125 20.515625 
Q 16.703125 13.921875 20.71875 10.15625 
Q 24.75 6.390625 31.78125 6.390625 
Q 38.8125 6.390625 42.859375 10.171875 
Q 46.921875 13.96875 46.921875 20.515625 
Q 46.921875 27.09375 42.890625 30.859375 
Q 38.875 34.625 31.78125 34.625 
z
M 21.921875 38.8125 
Q 15.578125 40.375 12.03125 44.71875 
Q 8.5 49.078125 8.5 55.328125 
Q 8.5 64.0625 14.71875 69.140625 
Q 20.953125 74.21875 31.78125 74.21875 
Q 42.671875 74.21875 48.875 69.140625 
Q 55.078125 64.0625 55.078125 55.328125 
Q 55.078125 49.078125 51.53125 44.71875 
Q 48 40.375 41.703125 38.8125 
Q 48.828125 37.15625 52.796875 32.3125 
Q 56.78125 27.484375 56.78125 20.515625 
Q 56.78125 9.90625 50.3125 4.234375 
Q 43.84375 -1.421875 31.78125 -1.421875 
Q 19.734375 -1.421875 13.25 4.234375 
Q 6.78125 9.90625 6.78125 20.515625 
Q 6.78125 27.484375 10.78125 32.3125 
Q 14.796875 37.15625 21.921875 38.8125 
z
M 18.3125 54.390625 
Q 18.3125 48.734375 21.84375 45.5625 
Q 25.390625 42.390625 31.78125 42.390625 
Q 38.140625 42.390625 41.71875 45.5625 
Q 45.3125 48.734375 45.3125 54.390625 
Q 45.3125 60.0625 41.71875 63.234375 
Q 38.140625 66.40625 31.78125 66.40625 
Q 25.390625 66.40625 21.84375 63.234375 
Q 18.3125 60.0625 18.3125 54.390625 
z
" id="DejaVuSans-56"/>
      </defs>
      <g transform="translate(949.31625 534.287237)scale(0.1 -0.1)">
       <use xlink:href="#DejaVuSans-56"/>
       <use x="63.623047" xlink:href="#DejaVuSans-48"/>
       <use x="127.246094" xlink:href="#DejaVuSans-48"/>
      </g>
     </g>
    </g>
    <g id="text_10">
     <!-- GS10 -->
     <defs>
      <path d="M 59.515625 10.40625 
L 59.515625 29.984375 
L 43.40625 29.984375 
L 43.40625 38.09375 
L 69.28125 38.09375 
L 69.28125 6.78125 
Q 63.578125 2.734375 56.6875 0.65625 
Q 49.8125 -1.421875 42 -1.421875 
Q 24.90625 -1.421875 15.25 8.5625 
Q 5.609375 18.5625 5.609375 36.375 
Q 5.609375 54.25 15.25 64.234375 
Q 24.90625 74.21875 42 74.21875 
Q 49.125 74.21875 55.546875 72.453125 
Q 61.96875 70.703125 67.390625 67.28125 
L 67.390625 56.78125 
Q 61.921875 61.421875 55.765625 63.765625 
Q 49.609375 66.109375 42.828125 66.109375 
Q 29.4375 66.109375 22.71875 58.640625 
Q 16.015625 51.171875 16.015625 36.375 
Q 16.015625 21.625 22.71875 14.15625 
Q 29.4375 6.6875 42.828125 6.6875 
Q 48.046875 6.6875 52.140625 7.59375 
Q 56.25 8.5 59.515625 10.40625 
z
" id="DejaVuSans-71"/>
      <path d="M 53.515625 70.515625 
L 53.515625 60.890625 
Q 47.90625 63.578125 42.921875 64.890625 
Q 37.9375 66.21875 33.296875 66.21875 
Q 25.25 66.21875 20.875 63.09375 
Q 16.5 59.96875 16.5 54.203125 
Q 16.5 49.359375 19.40625 46.890625 
Q 22.3125 44.4375 30.421875 42.921875 
L 36.375 41.703125 
Q 47.40625 39.59375 52.65625 34.296875 
Q 57.90625 29 57.90625 20.125 
Q 57.90625 9.515625 50.796875 4.046875 
Q 43.703125 -1.421875 29.984375 -1.421875 
Q 24.8125 -1.421875 18.96875 -0.25 
Q 13.140625 0.921875 6.890625 3.21875 
L 6.890625 13.375 
Q 12.890625 10.015625 18.65625 8.296875 
Q 24.421875 6.59375 29.984375 6.59375 
Q 38.421875 6.59375 43.015625 9.90625 
Q 47.609375 13.234375 47.609375 19.390625 
Q 47.609375 24.75 44.3125 27.78125 
Q 41.015625 30.8125 33.5 32.328125 
L 27.484375 33.5 
Q 16.453125 35.6875 11.515625 40.375 
Q 6.59375 45.0625 6.59375 53.421875 
Q 6.59375 63.09375 13.40625 68.65625 
Q 20.21875 74.21875 32.171875 74.21875 
Q 37.3125 74.21875 42.625 73.28125 
Q 47.953125 72.359375 53.515625 70.515625 
z
" id="DejaVuSans-83"/>
     </defs>
     <g transform="translate(548.143594 551.764581)scale(0.15 -0.15)">
      <use xlink:href="#DejaVuSans-71"/>
      <use x="77.490234" xlink:href="#DejaVuSans-83"/>
      <use x="140.966797" xlink:href="#DejaVuSans-49"/>
      <use x="204.589844" xlink:href="#DejaVuSans-48"/>
     </g>
    </g>
   </g>
   <g id="matplotlib.axis_2">
    <g id="ytick_1">
     <g id="line2d_10">
      <defs>
       <path d="M 0 0 
L -3.5 0 
" id="m2d1b609a4e" style="stroke:#000000;stroke-width:0.8;"/>
      </defs>
      <g>
       <use style="stroke:#000000;stroke-width:0.8;" x="138.6" xlink:href="#m2d1b609a4e" y="519.490665"/>
      </g>
     </g>
     <g id="text_11">
      <!-- 0 -->
      <g transform="translate(125.2375 523.289884)scale(0.1 -0.1)">
       <use xlink:href="#DejaVuSans-48"/>
      </g>
     </g>
    </g>
    <g id="ytick_2">
     <g id="line2d_11">
      <g>
       <use style="stroke:#000000;stroke-width:0.8;" x="138.6" xlink:href="#m2d1b609a4e" y="463.487654"/>
      </g>
     </g>
     <g id="text_12">
      <!-- 2 -->
      <g transform="translate(125.2375 467.286873)scale(0.1 -0.1)">
       <use xlink:href="#DejaVuSans-50"/>
      </g>
     </g>
    </g>
    <g id="ytick_3">
     <g id="line2d_12">
      <g>
       <use style="stroke:#000000;stroke-width:0.8;" x="138.6" xlink:href="#m2d1b609a4e" y="407.484643"/>
      </g>
     </g>
     <g id="text_13">
      <!-- 4 -->
      <g transform="translate(125.2375 411.283862)scale(0.1 -0.1)">
       <use xlink:href="#DejaVuSans-52"/>
      </g>
     </g>
    </g>
    <g id="ytick_4">
     <g id="line2d_13">
      <g>
       <use style="stroke:#000000;stroke-width:0.8;" x="138.6" xlink:href="#m2d1b609a4e" y="351.481632"/>
      </g>
     </g>
     <g id="text_14">
      <!-- 6 -->
      <g transform="translate(125.2375 355.280851)scale(0.1 -0.1)">
       <use xlink:href="#DejaVuSans-54"/>
      </g>
     </g>
    </g>
    <g id="ytick_5">
     <g id="line2d_14">
      <g>
       <use style="stroke:#000000;stroke-width:0.8;" x="138.6" xlink:href="#m2d1b609a4e" y="295.478621"/>
      </g>
     </g>
     <g id="text_15">
      <!-- 8 -->
      <g transform="translate(125.2375 299.27784)scale(0.1 -0.1)">
       <use xlink:href="#DejaVuSans-56"/>
      </g>
     </g>
    </g>
    <g id="ytick_6">
     <g id="line2d_15">
      <g>
       <use style="stroke:#000000;stroke-width:0.8;" x="138.6" xlink:href="#m2d1b609a4e" y="239.47561"/>
      </g>
     </g>
     <g id="text_16">
      <!-- 10 -->
      <g transform="translate(118.875 243.274828)scale(0.1 -0.1)">
       <use xlink:href="#DejaVuSans-49"/>
       <use x="63.623047" xlink:href="#DejaVuSans-48"/>
      </g>
     </g>
    </g>
    <g id="ytick_7">
     <g id="line2d_16">
      <g>
       <use style="stroke:#000000;stroke-width:0.8;" x="138.6" xlink:href="#m2d1b609a4e" y="183.472598"/>
      </g>
     </g>
     <g id="text_17">
      <!-- 12 -->
      <g transform="translate(118.875 187.271817)scale(0.1 -0.1)">
       <use xlink:href="#DejaVuSans-49"/>
       <use x="63.623047" xlink:href="#DejaVuSans-50"/>
      </g>
     </g>
    </g>
    <g id="ytick_8">
     <g id="line2d_17">
      <g>
       <use style="stroke:#000000;stroke-width:0.8;" x="138.6" xlink:href="#m2d1b609a4e" y="127.469587"/>
      </g>
     </g>
     <g id="text_18">
      <!-- 14 -->
      <g transform="translate(118.875 131.268806)scale(0.1 -0.1)">
       <use xlink:href="#DejaVuSans-49"/>
       <use x="63.623047" xlink:href="#DejaVuSans-52"/>
      </g>
     </g>
    </g>
    <g id="ytick_9">
     <g id="line2d_18">
      <g>
       <use style="stroke:#000000;stroke-width:0.8;" x="138.6" xlink:href="#m2d1b609a4e" y="71.466576"/>
      </g>
     </g>
     <g id="text_19">
      <!-- 16 -->
      <g transform="translate(118.875 75.265795)scale(0.1 -0.1)">
       <use xlink:href="#DejaVuSans-49"/>
       <use x="63.623047" xlink:href="#DejaVuSans-54"/>
      </g>
     </g>
    </g>
    <g id="text_20">
     <!-- Time index -->
     <defs>
      <path d="M -0.296875 72.90625 
L 61.375 72.90625 
L 61.375 64.59375 
L 35.5 64.59375 
L 35.5 0 
L 25.59375 0 
L 25.59375 64.59375 
L -0.296875 64.59375 
z
" id="DejaVuSans-84"/>
      <path d="M 9.421875 54.6875 
L 18.40625 54.6875 
L 18.40625 0 
L 9.421875 0 
z
M 9.421875 75.984375 
L 18.40625 75.984375 
L 18.40625 64.59375 
L 9.421875 64.59375 
z
" id="DejaVuSans-105"/>
      <path d="M 52 44.1875 
Q 55.375 50.25 60.0625 53.125 
Q 64.75 56 71.09375 56 
Q 79.640625 56 84.28125 50.015625 
Q 88.921875 44.046875 88.921875 33.015625 
L 88.921875 0 
L 79.890625 0 
L 79.890625 32.71875 
Q 79.890625 40.578125 77.09375 44.375 
Q 74.3125 48.1875 68.609375 48.1875 
Q 61.625 48.1875 57.5625 43.546875 
Q 53.515625 38.921875 53.515625 30.90625 
L 53.515625 0 
L 44.484375 0 
L 44.484375 32.71875 
Q 44.484375 40.625 41.703125 44.40625 
Q 38.921875 48.1875 33.109375 48.1875 
Q 26.21875 48.1875 22.15625 43.53125 
Q 18.109375 38.875 18.109375 30.90625 
L 18.109375 0 
L 9.078125 0 
L 9.078125 54.6875 
L 18.109375 54.6875 
L 18.109375 46.1875 
Q 21.1875 51.21875 25.484375 53.609375 
Q 29.78125 56 35.6875 56 
Q 41.65625 56 45.828125 52.96875 
Q 50 49.953125 52 44.1875 
z
" id="DejaVuSans-109"/>
      <path d="M 56.203125 29.59375 
L 56.203125 25.203125 
L 14.890625 25.203125 
Q 15.484375 15.921875 20.484375 11.0625 
Q 25.484375 6.203125 34.421875 6.203125 
Q 39.59375 6.203125 44.453125 7.46875 
Q 49.3125 8.734375 54.109375 11.28125 
L 54.109375 2.78125 
Q 49.265625 0.734375 44.1875 -0.34375 
Q 39.109375 -1.421875 33.890625 -1.421875 
Q 20.796875 -1.421875 13.15625 6.1875 
Q 5.515625 13.8125 5.515625 26.8125 
Q 5.515625 40.234375 12.765625 48.109375 
Q 20.015625 56 32.328125 56 
Q 43.359375 56 49.78125 48.890625 
Q 56.203125 41.796875 56.203125 29.59375 
z
M 47.21875 32.234375 
Q 47.125 39.59375 43.09375 43.984375 
Q 39.0625 48.390625 32.421875 48.390625 
Q 24.90625 48.390625 20.390625 44.140625 
Q 15.875 39.890625 15.1875 32.171875 
z
" id="DejaVuSans-101"/>
      <path id="DejaVuSans-32"/>
      <path d="M 54.890625 33.015625 
L 54.890625 0 
L 45.90625 0 
L 45.90625 32.71875 
Q 45.90625 40.484375 42.875 44.328125 
Q 39.84375 48.1875 33.796875 48.1875 
Q 26.515625 48.1875 22.3125 43.546875 
Q 18.109375 38.921875 18.109375 30.90625 
L 18.109375 0 
L 9.078125 0 
L 9.078125 54.6875 
L 18.109375 54.6875 
L 18.109375 46.1875 
Q 21.34375 51.125 25.703125 53.5625 
Q 30.078125 56 35.796875 56 
Q 45.21875 56 50.046875 50.171875 
Q 54.890625 44.34375 54.890625 33.015625 
z
" id="DejaVuSans-110"/>
      <path d="M 45.40625 46.390625 
L 45.40625 75.984375 
L 54.390625 75.984375 
L 54.390625 0 
L 45.40625 0 
L 45.40625 8.203125 
Q 42.578125 3.328125 38.25 0.953125 
Q 33.9375 -1.421875 27.875 -1.421875 
Q 17.96875 -1.421875 11.734375 6.484375 
Q 5.515625 14.40625 5.515625 27.296875 
Q 5.515625 40.1875 11.734375 48.09375 
Q 17.96875 56 27.875 56 
Q 33.9375 56 38.25 53.625 
Q 42.578125 51.265625 45.40625 46.390625 
z
M 14.796875 27.296875 
Q 14.796875 17.390625 18.875 11.75 
Q 22.953125 6.109375 30.078125 6.109375 
Q 37.203125 6.109375 41.296875 11.75 
Q 45.40625 17.390625 45.40625 27.296875 
Q 45.40625 37.203125 41.296875 42.84375 
Q 37.203125 48.484375 30.078125 48.484375 
Q 22.953125 48.484375 18.875 42.84375 
Q 14.796875 37.203125 14.796875 27.296875 
z
" id="DejaVuSans-100"/>
      <path d="M 54.890625 54.6875 
L 35.109375 28.078125 
L 55.90625 0 
L 45.3125 0 
L 29.390625 21.484375 
L 13.484375 0 
L 2.875 0 
L 24.125 28.609375 
L 4.6875 54.6875 
L 15.28125 54.6875 
L 29.78125 35.203125 
L 44.28125 54.6875 
z
" id="DejaVuSans-120"/>
     </defs>
     <g transform="translate(111.755469 336.495225)rotate(-90)scale(0.15 -0.15)">
      <use xlink:href="#DejaVuSans-84"/>
      <use x="61.037109" xlink:href="#DejaVuSans-105"/>
      <use x="88.820312" xlink:href="#DejaVuSans-109"/>
      <use x="186.232422" xlink:href="#DejaVuSans-101"/>
      <use x="247.755859" xlink:href="#DejaVuSans-32"/>
      <use x="279.542969" xlink:href="#DejaVuSans-105"/>
      <use x="307.326172" xlink:href="#DejaVuSans-110"/>
      <use x="370.705078" xlink:href="#DejaVuSans-100"/>
      <use x="434.181641" xlink:href="#DejaVuSans-101"/>
      <use x="495.689453" xlink:href="#DejaVuSans-120"/>
     </g>
    </g>
   </g>
   <g id="line2d_19">
    <path clip-path="url(#p9083aa7a58)" d="M 177.66 440.246405 
L 178.6365 434.086073 
L 179.613 432.405983 
L 180.5895 437.446254 
L 181.566 436.886224 
L 182.5425 439.126344 
L 183.519 445.00666 
L 184.4955 444.44663 
L 185.472 446.966766 
L 186.4485 450.046931 
L 187.425 450.326947 
L 188.4015 453.127097 
L 189.378 455.367218 
L 190.3545 453.127097 
L 191.331 452.847082 
L 192.3075 455.087202 
L 193.284 453.407112 
L 194.2605 452.847082 
L 196.2135 450.046931 
L 197.19 449.206886 
L 198.1665 446.406736 
L 199.143 445.286676 
L 200.1195 444.44663 
L 201.096 442.486525 
L 202.0725 442.20651 
L 203.049 441.64648 
L 204.0255 438.286299 
L 205.002 436.326194 
L 205.9785 436.326194 
L 206.955 438.846329 
L 207.9315 438.566314 
L 208.908 436.606209 
L 210.861 439.966389 
L 211.8375 436.606209 
L 212.814 430.445878 
L 213.7905 433.526043 
L 214.767 435.486149 
L 215.7435 432.405983 
L 216.72 426.245652 
L 217.6965 424.845576 
L 218.673 425.965637 
L 219.6495 421.765411 
L 220.626 418.96526 
L 222.579 425.965637 
L 224.532 422.045426 
L 225.5085 418.685245 
L 226.485 413.084944 
L 227.4615 409.444748 
L 228.438 409.444748 
L 229.4145 409.724763 
L 230.391 408.324688 
L 231.3675 415.325065 
L 232.344 429.605832 
L 233.3205 432.966013 
L 234.297 434.086073 
L 235.2735 436.046179 
L 236.25 438.846329 
L 237.2265 437.726269 
L 238.203 436.326194 
L 239.1795 429.885847 
L 240.156 420.365336 
L 241.1325 414.205004 
L 242.109 413.084944 
L 243.0855 414.765034 
L 244.062 411.404854 
L 245.0385 406.924613 
L 246.015 408.604703 
L 246.9915 407.764658 
L 247.968 404.124462 
L 248.9445 398.804176 
L 249.921 397.964131 
L 250.8975 396.284041 
L 251.874 395.443996 
L 252.8505 388.443619 
L 253.827 392.643845 
L 254.8035 392.643845 
L 255.78 388.163604 
L 256.7565 387.323559 
L 258.7095 400.484267 
L 259.686 399.644221 
L 260.6625 397.684116 
L 261.639 403.284417 
L 262.6155 410.284794 
L 263.592 413.084944 
L 264.5685 413.084944 
L 265.545 410.564809 
L 266.5215 409.444748 
L 267.498 411.964884 
L 268.4745 411.964884 
L 269.451 413.644974 
L 270.4275 414.765034 
L 271.404 413.644974 
L 272.3805 415.60508 
L 273.357 410.844824 
L 274.3335 409.724763 
L 275.31 406.364583 
L 277.263 409.724763 
L 278.2395 409.164733 
L 279.216 405.804553 
L 280.1925 405.244523 
L 281.169 406.364583 
L 282.1455 409.444748 
L 283.122 411.964884 
L 284.0985 411.124839 
L 285.075 410.004779 
L 286.0515 407.204628 
L 287.028 408.044673 
L 288.0045 408.044673 
L 288.981 409.444748 
L 289.9575 409.724763 
L 290.934 411.404854 
L 291.9105 412.244899 
L 292.887 409.724763 
L 293.8635 409.444748 
L 294.84 408.324688 
L 295.8165 409.444748 
L 296.793 407.764658 
L 297.7695 406.924613 
L 298.746 407.484643 
L 299.7225 405.244523 
L 300.699 404.404477 
L 302.652 403.844447 
L 303.6285 402.724387 
L 304.605 403.284417 
L 305.5815 401.324312 
L 306.558 401.044297 
L 308.511 402.724387 
L 309.4875 402.164357 
L 310.464 402.164357 
L 311.4405 401.884342 
L 312.417 402.164357 
L 313.3935 403.284417 
L 314.37 402.444372 
L 315.3465 402.164357 
L 316.323 401.604327 
L 317.2995 401.604327 
L 318.276 401.884342 
L 319.2525 401.604327 
L 320.229 401.604327 
L 321.2055 401.884342 
L 322.182 400.484267 
L 323.1585 399.364206 
L 324.135 397.684116 
L 325.1115 394.883966 
L 326.088 390.12371 
L 327.0645 390.403725 
L 328.041 384.243393 
L 329.0175 383.123333 
L 329.994 386.483514 
L 331.947 384.803424 
L 333.9 373.322806 
L 334.8765 374.442866 
L 335.853 379.203122 
L 336.8295 375.002897 
L 337.806 383.963378 
L 338.7825 391.24377 
L 339.759 389.843695 
L 340.7355 392.36383 
L 341.712 390.963755 
L 342.6885 383.683363 
L 343.665 378.923107 
L 344.6415 375.002897 
L 345.618 371.642716 
L 346.5945 371.082686 
L 347.571 366.042415 
L 348.5475 358.482008 
L 349.524 359.882084 
L 350.5005 364.64234 
L 351.477 363.802294 
L 352.4535 358.762023 
L 353.43 361.562174 
L 354.4065 355.121828 
L 355.383 359.322053 
L 356.3595 365.482385 
L 357.336 367.722505 
L 358.3125 366.602445 
L 360.2655 359.882084 
L 361.242 350.641587 
L 362.2185 350.361572 
L 363.195 346.161346 
L 364.1715 343.08118 
L 365.148 346.721376 
L 366.1245 342.52115 
L 367.101 335.520774 
L 368.0775 331.320548 
L 369.054 332.160593 
L 370.0305 318.999885 
L 371.007 320.679976 
L 371.9835 319.559916 
L 372.96 305.279148 
L 373.9365 301.358937 
L 374.913 316.759765 
L 375.8895 321.520021 
L 376.866 312.559539 
L 377.8425 297.998756 
L 378.819 299.958862 
L 379.7955 310.599434 
L 380.772 308.639328 
L 381.7485 312.559539 
L 382.725 314.239629 
L 384.678 340.561045 
L 385.6545 344.761271 
L 386.631 348.401466 
L 387.6075 359.882084 
L 388.584 356.241888 
L 389.5605 340.561045 
L 390.537 336.920849 
L 391.5135 331.040533 
L 392.49 335.240759 
L 393.4665 347.561421 
L 394.443 353.441737 
L 395.4195 356.801918 
L 396.396 353.441737 
L 397.3725 352.881707 
L 398.349 349.241511 
L 399.3255 349.521527 
L 400.302 346.161346 
L 401.2785 347.841436 
L 402.255 348.401466 
L 403.2315 348.401466 
L 404.208 345.601316 
L 405.1845 336.080804 
L 406.161 338.040909 
L 407.1375 343.64121 
L 408.114 341.40109 
L 409.0905 338.600939 
L 410.067 333.560668 
L 411.0435 331.600563 
L 412.02 332.720623 
L 412.9965 327.680352 
L 413.973 326.280277 
L 414.9495 319.839931 
L 415.926 312.279524 
L 417.879 329.360442 
L 418.8555 331.040533 
L 419.832 330.760518 
L 420.8085 323.760141 
L 421.785 324.600187 
L 422.7615 317.59981 
L 423.738 309.199358 
L 424.7145 307.239253 
L 425.691 308.359313 
L 426.6675 300.798907 
L 427.644 294.358561 
L 428.6205 294.358561 
L 429.597 298.278771 
L 430.5735 304.439103 
L 431.55 311.439479 
L 432.5265 309.479374 
L 433.503 312.559539 
L 434.4795 303.039027 
L 435.456 289.038274 
L 436.4325 293.79853 
L 437.409 299.398832 
L 438.3855 293.79853 
L 439.362 284.278019 
L 440.3385 283.437973 
L 441.315 291.55841 
L 442.2915 294.078545 
L 443.268 295.478621 
L 444.2445 302.759012 
L 445.221 301.358937 
L 446.1975 303.039027 
L 447.174 307.799283 
L 448.1505 298.278771 
L 449.127 299.398832 
L 450.1035 300.238877 
L 451.08 301.918967 
L 453.033 311.999509 
L 454.0095 315.35969 
L 454.986 327.120322 
L 455.9625 317.59981 
L 456.939 312.559539 
L 457.9155 310.599434 
L 458.892 313.119569 
L 459.8685 310.599434 
L 460.845 315.639705 
L 461.8215 314.239629 
L 462.798 312.279524 
L 463.7745 313.959614 
L 464.751 308.919343 
L 465.7275 307.239253 
L 466.704 304.159087 
L 467.6805 296.598681 
L 468.657 294.638576 
L 469.6335 294.358561 
L 470.61 291.278395 
L 471.5865 285.678094 
L 472.563 282.597928 
L 473.5395 277.557657 
L 474.516 283.998003 
L 475.4925 283.717988 
L 476.469 277.557657 
L 477.4455 272.797401 
L 478.422 267.1971 
L 479.3985 264.676965 
L 480.375 264.676965 
L 481.3515 264.116935 
L 482.328 262.436844 
L 483.3045 260.476739 
L 484.281 269.997251 
L 485.2575 268.87719 
L 486.234 266.63707 
L 487.2105 258.236618 
L 488.187 231.075158 
L 489.1635 221.274631 
L 490.14 228.555022 
L 491.1165 217.074405 
L 492.093 171.991981 
L 493.0695 162.471469 
L 495.0225 234.435339 
L 495.999 245.635941 
L 496.9755 232.475233 
L 497.952 208.673953 
L 498.9285 197.193336 
L 499.905 190.472975 
L 500.8815 164.431575 
L 501.858 159.951334 
L 502.8345 167.51174 
L 503.811 150.150807 
L 504.7875 152.110912 
L 505.764 136.430069 
L 506.7405 124.669437 
L 507.717 142.310385 
L 508.6935 119.629166 
L 509.67 101.148172 
L 510.6465 90.5076 
L 511.623 95.267856 
L 512.5995 144.550506 
L 513.576 135.310009 
L 514.5525 110.948699 
L 515.529 115.42894 
L 516.5055 131.389798 
L 517.482 131.109783 
L 518.4585 138.110159 
L 519.435 119.069136 
L 520.4115 128.869663 
L 521.388 153.791003 
L 522.3645 173.952087 
L 523.341 213.99424 
L 524.3175 224.074782 
L 525.294 224.354797 
L 526.2705 226.594917 
L 527.247 219.314526 
L 528.2235 225.194842 
L 529.2 228.275007 
L 530.1765 228.835038 
L 531.153 215.67433 
L 533.106 187.672824 
L 534.0825 193.273125 
L 535.059 196.353291 
L 537.012 188.232854 
L 537.9885 192.713095 
L 538.965 187.952839 
L 539.9415 174.512117 
L 540.918 165.83165 
L 541.8945 143.990476 
L 542.871 139.79025 
L 543.8475 145.390551 
L 544.824 163.311514 
L 545.8005 168.911816 
L 546.777 178.992358 
L 547.7535 195.513246 
L 548.73 197.473351 
L 549.7065 200.833532 
L 550.683 197.193336 
L 551.6595 187.392809 
L 552.636 199.433457 
L 553.6125 215.67433 
L 554.589 234.995369 
L 555.5655 230.795143 
L 556.542 230.235113 
L 557.5185 229.115053 
L 558.495 232.755248 
L 559.4715 245.635941 
L 560.448 260.196724 
L 561.4245 262.156829 
L 562.401 275.877567 
L 563.3775 301.638952 
L 564.354 315.079675 
L 565.3305 303.599057 
L 566.307 301.078922 
L 567.2835 315.079675 
L 568.26 318.71987 
L 569.2365 310.879449 
L 570.213 311.439479 
L 571.1895 316.47975 
L 572.166 320.399961 
L 573.1425 321.240006 
L 574.119 316.47975 
L 575.0955 316.47975 
L 576.072 294.918591 
L 577.0485 278.397702 
L 578.025 284.278019 
L 579.0015 282.877943 
L 579.978 274.197477 
L 580.9545 255.716483 
L 581.931 252.916332 
L 582.9075 271.397326 
L 583.884 267.75713 
L 584.8605 276.717612 
L 585.837 289.598305 
L 586.8135 285.118064 
L 588.7665 264.95698 
L 589.743 269.717236 
L 590.7195 265.797025 
L 591.696 260.196724 
L 592.6725 268.037145 
L 593.649 273.077416 
L 595.602 264.39695 
L 596.5785 264.95698 
L 597.555 262.716859 
L 598.5315 257.396573 
L 599.508 262.436844 
L 600.4845 271.397326 
L 601.461 287.638199 
L 602.4375 294.918591 
L 604.3905 290.158335 
L 605.367 295.198606 
L 606.3435 299.118816 
L 607.32 299.958862 
L 608.2965 289.598305 
L 609.273 282.317913 
L 610.2495 278.957732 
L 611.226 273.357431 
L 612.2025 274.197477 
L 613.179 282.037898 
L 614.1555 282.317913 
L 615.132 274.477492 
L 616.1085 270.557281 
L 617.085 275.317537 
L 619.038 293.2385 
L 620.0145 292.958485 
L 620.991 299.678847 
L 621.9675 292.398455 
L 622.944 294.358561 
L 623.9205 293.518515 
L 624.897 287.638199 
L 625.8735 287.918214 
L 626.85 298.278771 
L 627.8265 305.279148 
L 629.7795 311.719494 
L 630.756 320.959991 
L 631.7325 322.640081 
L 632.709 313.959614 
L 633.6855 308.359313 
L 634.662 310.039404 
L 635.6385 312.559539 
L 636.615 316.199735 
L 637.5915 327.960367 
L 638.568 334.960744 
L 639.5445 339.721 
L 640.521 334.960744 
L 641.4975 327.120322 
L 642.474 329.920473 
L 643.4505 334.680729 
L 644.427 344.20124 
L 645.4035 352.041662 
L 646.38 352.321677 
L 647.3565 350.361572 
L 648.333 352.601692 
L 649.3095 356.801918 
L 650.286 360.442114 
L 651.2625 369.402595 
L 652.239 370.242641 
L 653.2155 359.322053 
L 654.192 357.921978 
L 655.1685 358.482008 
L 656.145 352.321677 
L 658.098 324.320171 
L 659.0745 318.439855 
L 660.051 320.679976 
L 661.0275 315.079675 
L 662.004 316.759765 
L 662.9805 310.599434 
L 663.957 302.759012 
L 664.9335 296.598681 
L 665.91 300.798907 
L 666.8865 301.638952 
L 667.863 310.319419 
L 668.8395 317.879825 
L 669.816 321.800036 
L 671.769 346.721376 
L 672.7455 343.64121 
L 673.722 337.760894 
L 674.6985 345.881331 
L 675.675 350.361572 
L 676.6515 353.441737 
L 677.628 359.602069 
L 678.6045 361.282159 
L 679.581 356.801918 
L 680.5575 343.921225 
L 682.5105 330.760518 
L 683.487 326.000262 
L 684.4635 327.120322 
L 685.44 333.560668 
L 686.4165 328.240382 
L 688.3695 345.881331 
L 689.346 343.08118 
L 690.3225 335.240759 
L 691.299 339.721 
L 692.2755 332.160593 
L 693.252 326.560292 
L 694.2285 331.600563 
L 695.205 337.760894 
L 696.1815 345.321301 
L 697.158 343.08118 
L 698.1345 345.601316 
L 699.111 350.641587 
L 700.0875 354.841813 
L 701.064 356.801918 
L 702.0405 364.362324 
L 703.017 363.522279 
L 703.9935 361.282159 
L 704.97 361.562174 
L 705.9465 361.282159 
L 706.923 365.482385 
L 707.8995 366.602445 
L 708.876 369.962626 
L 709.8525 384.803424 
L 710.829 392.643845 
L 711.8055 384.243393 
L 712.782 389.283664 
L 713.7585 387.323559 
L 714.735 379.483137 
L 715.7115 373.042791 
L 716.688 374.442866 
L 718.641 354.281782 
L 719.6175 357.361948 
L 720.594 353.161722 
L 721.5705 353.721752 
L 722.547 348.401466 
L 723.5235 350.641587 
L 724.5 343.64121 
L 725.4765 333.000638 
L 726.453 336.920849 
L 728.406 351.761647 
L 729.3825 339.160969 
L 730.359 348.681481 
L 731.3355 350.081557 
L 732.312 356.241888 
L 733.2885 357.081933 
L 734.265 358.762023 
L 735.2415 359.322053 
L 736.218 372.762776 
L 737.1945 375.002897 
L 738.171 376.682987 
L 739.1475 382.563303 
L 741.1005 368.56255 
L 742.077 371.642716 
L 743.0535 372.762776 
L 745.0065 387.043544 
L 745.983 391.523785 
L 746.9595 389.283664 
L 747.936 376.963002 
L 748.9125 378.363077 
L 749.889 382.003273 
L 750.8655 371.642716 
L 751.842 373.602821 
L 752.8185 375.002897 
L 753.795 381.443243 
L 754.7715 389.283664 
L 756.7245 411.124839 
L 757.701 409.164733 
L 758.6775 406.084568 
L 759.654 406.644598 
L 760.6305 406.084568 
L 761.607 410.284794 
L 762.5835 412.804929 
L 763.56 408.604703 
L 764.5365 419.52529 
L 765.513 426.245652 
L 766.4895 408.044673 
L 767.466 394.883966 
L 768.4425 399.924237 
L 769.419 399.364206 
L 770.3955 399.084191 
L 771.372 399.924237 
L 772.3485 403.284417 
L 773.325 405.244523 
L 774.3015 412.244899 
L 775.278 397.684116 
L 776.2545 387.323559 
L 777.231 387.043544 
L 779.184 399.644221 
L 780.1605 403.844447 
L 781.137 404.684492 
L 782.1135 402.164357 
L 783.09 401.044297 
L 784.0665 401.324312 
L 785.043 402.724387 
L 786.0195 393.48389 
L 786.996 397.964131 
L 787.9725 403.564432 
L 788.949 407.484643 
L 789.9255 402.444372 
L 790.902 400.204252 
L 791.8785 401.884342 
L 792.855 394.60395 
L 793.8315 392.36383 
L 794.808 394.323935 
L 795.7845 395.724011 
L 797.7375 387.323559 
L 798.714 379.763153 
L 799.6905 376.402972 
L 800.667 376.402972 
L 801.6435 376.963002 
L 802.62 382.843318 
L 803.5965 387.323559 
L 804.573 387.043544 
L 805.5495 390.68374 
L 806.526 391.8038 
L 807.5025 386.203499 
L 808.479 387.323559 
L 809.4555 391.8038 
L 810.432 388.163604 
L 811.4085 386.483514 
L 812.385 376.682987 
L 813.3615 379.483137 
L 814.338 388.723634 
L 815.3145 392.92386 
L 816.291 392.643845 
L 817.2675 403.284417 
L 818.244 404.684492 
L 819.2205 414.765034 
L 820.197 414.765034 
L 821.1735 421.205381 
L 822.15 416.445125 
L 824.103 404.684492 
L 825.0795 407.204628 
L 826.056 410.564809 
L 827.0325 416.16511 
L 828.009 412.804929 
L 828.9855 420.645351 
L 829.962 451.727022 
L 830.9385 448.926871 
L 831.915 439.126344 
L 832.8915 440.52642 
L 833.868 437.446254 
L 834.8445 427.365712 
L 835.821 415.325065 
L 836.7975 419.805305 
L 837.774 418.96526 
L 838.7505 424.285546 
L 839.727 424.565561 
L 840.7035 424.285546 
L 841.68 418.96526 
L 842.6565 415.04505 
L 843.633 416.16511 
L 844.6095 415.04505 
L 845.586 411.684869 
L 846.5625 423.725516 
L 847.539 429.885847 
L 848.5155 435.206134 
L 849.492 443.8866 
L 850.4685 445.286676 
L 851.445 448.366841 
L 852.4215 442.20651 
L 853.398 427.365712 
L 854.3745 424.565561 
L 855.351 419.245275 
L 856.3275 424.005531 
L 857.304 422.605456 
L 858.2805 430.725893 
L 859.257 435.486149 
L 860.2335 435.486149 
L 861.21 455.087202 
L 862.1865 464.047684 
L 863.163 459.287428 
L 864.1395 463.207639 
L 865.116 464.047684 
L 866.0925 464.327699 
L 867.069 464.327699 
L 868.0455 458.727398 
L 869.022 462.087579 
L 869.9985 469.087955 
L 870.975 474.128226 
L 871.9515 476.648362 
L 872.928 472.448136 
L 873.9045 471.328076 
L 874.881 470.488031 
L 875.8575 473.288181 
L 876.834 471.328076 
L 877.8105 466.00779 
L 878.787 464.047684 
L 879.7635 464.607714 
L 880.74 470.208016 
L 881.7165 465.44776 
L 882.693 455.087202 
L 883.6695 447.246781 
L 884.646 442.76654 
L 885.6225 440.806435 
L 886.599 446.126721 
L 887.5755 443.32657 
L 888.552 438.286299 
L 889.5285 439.406359 
L 890.505 443.606585 
L 891.4815 443.32657 
L 892.458 443.606585 
L 893.4345 447.806811 
L 894.411 446.686751 
L 895.3875 448.366841 
L 896.364 451.727022 
L 897.3405 448.646856 
L 898.317 455.087202 
L 899.2935 454.247157 
L 900.27 457.607338 
L 901.2465 466.847835 
L 902.223 464.047684 
L 903.1995 462.367594 
L 904.176 465.167744 
L 905.1525 457.887353 
L 906.129 453.407112 
L 907.1055 454.527172 
L 908.082 458.727398 
L 909.0585 458.727398 
L 910.035 461.527549 
L 911.0115 456.207263 
L 911.988 456.767293 
L 912.9645 460.967519 
L 913.941 469.647985 
L 914.9175 466.56782 
L 915.894 468.80794 
L 916.8705 468.80794 
L 917.847 473.568196 
L 918.8235 477.488407 
L 919.8 475.808317 
L 920.7765 473.848211 
L 921.753 470.208016 
L 923.706 449.766916 
L 924.6825 451.447007 
L 925.659 451.727022 
L 926.6355 450.046931 
L 927.612 455.087202 
L 928.5885 455.087202 
L 929.565 458.167368 
L 930.5415 454.527172 
L 931.518 457.607338 
L 932.4945 457.887353 
L 933.471 453.407112 
L 934.4475 453.687127 
L 935.424 452.287052 
L 936.4005 447.246781 
L 937.377 439.406359 
L 938.3535 439.966389 
L 939.33 439.126344 
L 940.3065 436.046179 
L 941.283 438.006284 
L 942.2595 438.566314 
L 943.236 438.566314 
L 944.2125 435.486149 
L 945.189 431.285923 
L 946.1655 432.125968 
L 947.142 440.246405 
L 948.1185 443.606585 
L 949.095 444.44663 
L 950.0715 447.526796 
L 951.048 448.646856 
L 952.0245 452.287052 
L 953.001 461.527549 
L 953.9775 461.807564 
L 954.954 473.848211 
L 955.9305 471.888106 
L 956.907 471.608091 
L 957.8835 468.80794 
L 958.86 467.407865 
L 958.86 467.407865 
" style="fill:none;stroke:#008000;stroke-linecap:square;stroke-width:1.5;"/>
   </g>
   <g id="line2d_20">
    <path clip-path="url(#p9083aa7a58)" d="M 950.0715 452.472872 
L 951.048 464.771363 
L 952.0245 471.37947 
L 953.001 482.428071 
L 953.9775 498.228892 
L 954.954 499.2516 
L 955.9305 493.161172 
L 956.907 489.317229 
L 957.8835 484.712764 
L 958.86 471.409217 
" style="fill:none;stroke:#0000ff;stroke-linecap:square;stroke-width:1.5;"/>
   </g>
   <g id="line2d_21">
    <path clip-path="url(#p9083aa7a58)" d="M 950.0715 477.488407 
L 950.0715 90.5076 
" style="fill:none;stroke:#000000;stroke-linecap:square;"/>
   </g>
   <g id="patch_3">
    <path d="M 138.6 519.6888 
L 138.6 70.0704 
" style="fill:none;stroke:#000000;stroke-linecap:square;stroke-linejoin:miter;stroke-width:0.8;"/>
   </g>
   <g id="patch_4">
    <path d="M 997.92 519.6888 
L 997.92 70.0704 
" style="fill:none;stroke:#000000;stroke-linecap:square;stroke-linejoin:miter;stroke-width:0.8;"/>
   </g>
   <g id="patch_5">
    <path d="M 138.6 519.6888 
L 997.92 519.6888 
" style="fill:none;stroke:#000000;stroke-linecap:square;stroke-linejoin:miter;stroke-width:0.8;"/>
   </g>
   <g id="patch_6">
    <path d="M 138.6 70.0704 
L 997.92 70.0704 
" style="fill:none;stroke:#000000;stroke-linecap:square;stroke-linejoin:miter;stroke-width:0.8;"/>
   </g>
   <g id="legend_1">
    <g id="patch_7">
     <path d="M 149.1 126.104775 
L 297.907031 126.104775 
Q 300.907031 126.104775 300.907031 123.104775 
L 300.907031 80.5704 
Q 300.907031 77.5704 297.907031 77.5704 
L 149.1 77.5704 
Q 146.1 77.5704 146.1 80.5704 
L 146.1 123.104775 
Q 146.1 126.104775 149.1 126.104775 
z
" style="fill:#ffffff;opacity:0.8;stroke:#cccccc;stroke-linejoin:miter;"/>
    </g>
    <g id="line2d_22">
     <path d="M 152.1 89.718056 
L 182.1 89.718056 
" style="fill:none;stroke:#008000;stroke-linecap:square;stroke-width:1.5;"/>
    </g>
    <g id="line2d_23"/>
    <g id="text_21">
     <!-- Actual values -->
     <defs>
      <path d="M 34.1875 63.1875 
L 20.796875 26.90625 
L 47.609375 26.90625 
z
M 28.609375 72.90625 
L 39.796875 72.90625 
L 67.578125 0 
L 57.328125 0 
L 50.6875 18.703125 
L 17.828125 18.703125 
L 11.1875 0 
L 0.78125 0 
z
" id="DejaVuSans-65"/>
      <path d="M 48.78125 52.59375 
L 48.78125 44.1875 
Q 44.96875 46.296875 41.140625 47.34375 
Q 37.3125 48.390625 33.40625 48.390625 
Q 24.65625 48.390625 19.8125 42.84375 
Q 14.984375 37.3125 14.984375 27.296875 
Q 14.984375 17.28125 19.8125 11.734375 
Q 24.65625 6.203125 33.40625 6.203125 
Q 37.3125 6.203125 41.140625 7.25 
Q 44.96875 8.296875 48.78125 10.40625 
L 48.78125 2.09375 
Q 45.015625 0.34375 40.984375 -0.53125 
Q 36.96875 -1.421875 32.421875 -1.421875 
Q 20.0625 -1.421875 12.78125 6.34375 
Q 5.515625 14.109375 5.515625 27.296875 
Q 5.515625 40.671875 12.859375 48.328125 
Q 20.21875 56 33.015625 56 
Q 37.15625 56 41.109375 55.140625 
Q 45.0625 54.296875 48.78125 52.59375 
z
" id="DejaVuSans-99"/>
      <path d="M 18.3125 70.21875 
L 18.3125 54.6875 
L 36.8125 54.6875 
L 36.8125 47.703125 
L 18.3125 47.703125 
L 18.3125 18.015625 
Q 18.3125 11.328125 20.140625 9.421875 
Q 21.96875 7.515625 27.59375 7.515625 
L 36.8125 7.515625 
L 36.8125 0 
L 27.59375 0 
Q 17.1875 0 13.234375 3.875 
Q 9.28125 7.765625 9.28125 18.015625 
L 9.28125 47.703125 
L 2.6875 47.703125 
L 2.6875 54.6875 
L 9.28125 54.6875 
L 9.28125 70.21875 
z
" id="DejaVuSans-116"/>
      <path d="M 8.5 21.578125 
L 8.5 54.6875 
L 17.484375 54.6875 
L 17.484375 21.921875 
Q 17.484375 14.15625 20.5 10.265625 
Q 23.53125 6.390625 29.59375 6.390625 
Q 36.859375 6.390625 41.078125 11.03125 
Q 45.3125 15.671875 45.3125 23.6875 
L 45.3125 54.6875 
L 54.296875 54.6875 
L 54.296875 0 
L 45.3125 0 
L 45.3125 8.40625 
Q 42.046875 3.421875 37.71875 1 
Q 33.40625 -1.421875 27.6875 -1.421875 
Q 18.265625 -1.421875 13.375 4.4375 
Q 8.5 10.296875 8.5 21.578125 
z
M 31.109375 56 
z
" id="DejaVuSans-117"/>
      <path d="M 34.28125 27.484375 
Q 23.390625 27.484375 19.1875 25 
Q 14.984375 22.515625 14.984375 16.5 
Q 14.984375 11.71875 18.140625 8.90625 
Q 21.296875 6.109375 26.703125 6.109375 
Q 34.1875 6.109375 38.703125 11.40625 
Q 43.21875 16.703125 43.21875 25.484375 
L 43.21875 27.484375 
z
M 52.203125 31.203125 
L 52.203125 0 
L 43.21875 0 
L 43.21875 8.296875 
Q 40.140625 3.328125 35.546875 0.953125 
Q 30.953125 -1.421875 24.3125 -1.421875 
Q 15.921875 -1.421875 10.953125 3.296875 
Q 6 8.015625 6 15.921875 
Q 6 25.140625 12.171875 29.828125 
Q 18.359375 34.515625 30.609375 34.515625 
L 43.21875 34.515625 
L 43.21875 35.40625 
Q 43.21875 41.609375 39.140625 45 
Q 35.0625 48.390625 27.6875 48.390625 
Q 23 48.390625 18.546875 47.265625 
Q 14.109375 46.140625 10.015625 43.890625 
L 10.015625 52.203125 
Q 14.9375 54.109375 19.578125 55.046875 
Q 24.21875 56 28.609375 56 
Q 40.484375 56 46.34375 49.84375 
Q 52.203125 43.703125 52.203125 31.203125 
z
" id="DejaVuSans-97"/>
      <path d="M 9.421875 75.984375 
L 18.40625 75.984375 
L 18.40625 0 
L 9.421875 0 
z
" id="DejaVuSans-108"/>
      <path d="M 2.984375 54.6875 
L 12.5 54.6875 
L 29.59375 8.796875 
L 46.6875 54.6875 
L 56.203125 54.6875 
L 35.6875 0 
L 23.484375 0 
z
" id="DejaVuSans-118"/>
      <path d="M 44.28125 53.078125 
L 44.28125 44.578125 
Q 40.484375 46.53125 36.375 47.5 
Q 32.28125 48.484375 27.875 48.484375 
Q 21.1875 48.484375 17.84375 46.4375 
Q 14.5 44.390625 14.5 40.28125 
Q 14.5 37.15625 16.890625 35.375 
Q 19.28125 33.59375 26.515625 31.984375 
L 29.59375 31.296875 
Q 39.15625 29.25 43.1875 25.515625 
Q 47.21875 21.78125 47.21875 15.09375 
Q 47.21875 7.46875 41.1875 3.015625 
Q 35.15625 -1.421875 24.609375 -1.421875 
Q 20.21875 -1.421875 15.453125 -0.5625 
Q 10.6875 0.296875 5.421875 2 
L 5.421875 11.28125 
Q 10.40625 8.6875 15.234375 7.390625 
Q 20.0625 6.109375 24.8125 6.109375 
Q 31.15625 6.109375 34.5625 8.28125 
Q 37.984375 10.453125 37.984375 14.40625 
Q 37.984375 18.0625 35.515625 20.015625 
Q 33.0625 21.96875 24.703125 23.78125 
L 21.578125 24.515625 
Q 13.234375 26.265625 9.515625 29.90625 
Q 5.8125 33.546875 5.8125 39.890625 
Q 5.8125 47.609375 11.28125 51.796875 
Q 16.75 56 26.8125 56 
Q 31.78125 56 36.171875 55.265625 
Q 40.578125 54.546875 44.28125 53.078125 
z
" id="DejaVuSans-115"/>
     </defs>
     <g transform="translate(194.1 94.968056)scale(0.15 -0.15)">
      <use xlink:href="#DejaVuSans-65"/>
      <use x="68.392578" xlink:href="#DejaVuSans-99"/>
      <use x="123.373047" xlink:href="#DejaVuSans-116"/>
      <use x="162.582031" xlink:href="#DejaVuSans-117"/>
      <use x="225.960938" xlink:href="#DejaVuSans-97"/>
      <use x="287.240234" xlink:href="#DejaVuSans-108"/>
      <use x="315.023438" xlink:href="#DejaVuSans-32"/>
      <use x="346.810547" xlink:href="#DejaVuSans-118"/>
      <use x="405.990234" xlink:href="#DejaVuSans-97"/>
      <use x="467.269531" xlink:href="#DejaVuSans-108"/>
      <use x="495.052734" xlink:href="#DejaVuSans-117"/>
      <use x="558.431641" xlink:href="#DejaVuSans-101"/>
      <use x="619.955078" xlink:href="#DejaVuSans-115"/>
     </g>
    </g>
    <g id="line2d_24">
     <path d="M 152.1 111.735244 
L 182.1 111.735244 
" style="fill:none;stroke:#0000ff;stroke-linecap:square;stroke-width:1.5;"/>
    </g>
    <g id="line2d_25"/>
    <g id="text_22">
     <!-- Predicted -->
     <defs>
      <path d="M 19.671875 64.796875 
L 19.671875 37.40625 
L 32.078125 37.40625 
Q 38.96875 37.40625 42.71875 40.96875 
Q 46.484375 44.53125 46.484375 51.125 
Q 46.484375 57.671875 42.71875 61.234375 
Q 38.96875 64.796875 32.078125 64.796875 
z
M 9.8125 72.90625 
L 32.078125 72.90625 
Q 44.34375 72.90625 50.609375 67.359375 
Q 56.890625 61.8125 56.890625 51.125 
Q 56.890625 40.328125 50.609375 34.8125 
Q 44.34375 29.296875 32.078125 29.296875 
L 19.671875 29.296875 
L 19.671875 0 
L 9.8125 0 
z
" id="DejaVuSans-80"/>
      <path d="M 41.109375 46.296875 
Q 39.59375 47.171875 37.8125 47.578125 
Q 36.03125 48 33.890625 48 
Q 26.265625 48 22.1875 43.046875 
Q 18.109375 38.09375 18.109375 28.8125 
L 18.109375 0 
L 9.078125 0 
L 9.078125 54.6875 
L 18.109375 54.6875 
L 18.109375 46.1875 
Q 20.953125 51.171875 25.484375 53.578125 
Q 30.03125 56 36.53125 56 
Q 37.453125 56 38.578125 55.875 
Q 39.703125 55.765625 41.0625 55.515625 
z
" id="DejaVuSans-114"/>
     </defs>
     <g transform="translate(194.1 116.985244)scale(0.15 -0.15)">
      <use xlink:href="#DejaVuSans-80"/>
      <use x="60.287109" xlink:href="#DejaVuSans-114"/>
      <use x="101.369141" xlink:href="#DejaVuSans-101"/>
      <use x="162.892578" xlink:href="#DejaVuSans-100"/>
      <use x="226.369141" xlink:href="#DejaVuSans-105"/>
      <use x="254.152344" xlink:href="#DejaVuSans-99"/>
      <use x="309.132812" xlink:href="#DejaVuSans-116"/>
      <use x="348.341797" xlink:href="#DejaVuSans-101"/>
      <use x="409.865234" xlink:href="#DejaVuSans-100"/>
     </g>
    </g>
   </g>
  </g>
 </g>
 <defs>
  <clipPath id="p9083aa7a58">
   <rect height="449.6184" width="859.32" x="138.6" y="70.0704"/>
  </clipPath>
 </defs>
</svg>
