<?xml version="1.0" encoding="utf-8" standalone="no"?>
<!DOCTYPE svg PUBLIC "-//W3C//DTD SVG 1.1//EN"
  "http://www.w3.org/Graphics/SVG/1.1/DTD/svg11.dtd">
<!-- Created with matplotlib (https://matplotlib.org/) -->
<svg height="583.92pt" version="1.1" viewBox="0 0 1108.8 583.92" width="1108.8pt" xmlns="http://www.w3.org/2000/svg" xmlns:xlink="http://www.w3.org/1999/xlink">
 <defs>
  <style type="text/css">
*{stroke-linecap:butt;stroke-linejoin:round;}
  </style>
 </defs>
 <g id="figure_1">
  <g id="patch_1">
   <path d="M 0 583.92 
L 1108.8 583.92 
L 1108.8 0 
L 0 0 
z
" style="fill:#ffffff;"/>
  </g>
  <g id="axes_1">
   <g id="patch_2">
    <path d="M 138.6 519.6888 
L 997.92 519.6888 
L 997.92 70.0704 
L 138.6 70.0704 
z
" style="fill:#ffffff;"/>
   </g>
   <g id="matplotlib.axis_1">
    <g id="xtick_1">
     <g id="line2d_1">
      <defs>
       <path d="M 0 0 
L 0 3.5 
" id="m897a60b6ae" style="stroke:#000000;stroke-width:0.8;"/>
      </defs>
      <g>
       <use style="stroke:#000000;stroke-width:0.8;" x="177.66" xlink:href="#m897a60b6ae" y="519.6888"/>
      </g>
     </g>
     <g id="text_1">
      <!-- 0 -->
      <defs>
       <path d="M 31.78125 66.40625 
Q 24.171875 66.40625 20.328125 58.90625 
Q 16.5 51.421875 16.5 36.375 
Q 16.5 21.390625 20.328125 13.890625 
Q 24.171875 6.390625 31.78125 6.390625 
Q 39.453125 6.390625 43.28125 13.890625 
Q 47.125 21.390625 47.125 36.375 
Q 47.125 51.421875 43.28125 58.90625 
Q 39.453125 66.40625 31.78125 66.40625 
z
M 31.78125 74.21875 
Q 44.046875 74.21875 50.515625 64.515625 
Q 56.984375 54.828125 56.984375 36.375 
Q 56.984375 17.96875 50.515625 8.265625 
Q 44.046875 -1.421875 31.78125 -1.421875 
Q 19.53125 -1.421875 13.0625 8.265625 
Q 6.59375 17.96875 6.59375 36.375 
Q 6.59375 54.828125 13.0625 64.515625 
Q 19.53125 74.21875 31.78125 74.21875 
z
" id="DejaVuSans-48"/>
      </defs>
      <g transform="translate(174.47875 534.287237)scale(0.1 -0.1)">
       <use xlink:href="#DejaVuSans-48"/>
      </g>
     </g>
    </g>
    <g id="xtick_2">
     <g id="line2d_2">
      <g>
       <use style="stroke:#000000;stroke-width:0.8;" x="310.743475" xlink:href="#m897a60b6ae" y="519.6888"/>
      </g>
     </g>
     <g id="text_2">
      <!-- 100 -->
      <defs>
       <path d="M 12.40625 8.296875 
L 28.515625 8.296875 
L 28.515625 63.921875 
L 10.984375 60.40625 
L 10.984375 69.390625 
L 28.421875 72.90625 
L 38.28125 72.90625 
L 38.28125 8.296875 
L 54.390625 8.296875 
L 54.390625 0 
L 12.40625 0 
z
" id="DejaVuSans-49"/>
      </defs>
      <g transform="translate(301.199725 534.287237)scale(0.1 -0.1)">
       <use xlink:href="#DejaVuSans-49"/>
       <use x="63.623047" xlink:href="#DejaVuSans-48"/>
       <use x="127.246094" xlink:href="#DejaVuSans-48"/>
      </g>
     </g>
    </g>
    <g id="xtick_3">
     <g id="line2d_3">
      <g>
       <use style="stroke:#000000;stroke-width:0.8;" x="443.826951" xlink:href="#m897a60b6ae" y="519.6888"/>
      </g>
     </g>
     <g id="text_3">
      <!-- 200 -->
      <defs>
       <path d="M 19.1875 8.296875 
L 53.609375 8.296875 
L 53.609375 0 
L 7.328125 0 
L 7.328125 8.296875 
Q 12.9375 14.109375 22.625 23.890625 
Q 32.328125 33.6875 34.8125 36.53125 
Q 39.546875 41.84375 41.421875 45.53125 
Q 43.3125 49.21875 43.3125 52.78125 
Q 43.3125 58.59375 39.234375 62.25 
Q 35.15625 65.921875 28.609375 65.921875 
Q 23.96875 65.921875 18.8125 64.3125 
Q 13.671875 62.703125 7.8125 59.421875 
L 7.8125 69.390625 
Q 13.765625 71.78125 18.9375 73 
Q 24.125 74.21875 28.421875 74.21875 
Q 39.75 74.21875 46.484375 68.546875 
Q 53.21875 62.890625 53.21875 53.421875 
Q 53.21875 48.921875 51.53125 44.890625 
Q 49.859375 40.875 45.40625 35.40625 
Q 44.1875 33.984375 37.640625 27.21875 
Q 31.109375 20.453125 19.1875 8.296875 
z
" id="DejaVuSans-50"/>
      </defs>
      <g transform="translate(434.283201 534.287237)scale(0.1 -0.1)">
       <use xlink:href="#DejaVuSans-50"/>
       <use x="63.623047" xlink:href="#DejaVuSans-48"/>
       <use x="127.246094" xlink:href="#DejaVuSans-48"/>
      </g>
     </g>
    </g>
    <g id="xtick_4">
     <g id="line2d_4">
      <g>
       <use style="stroke:#000000;stroke-width:0.8;" x="576.910426" xlink:href="#m897a60b6ae" y="519.6888"/>
      </g>
     </g>
     <g id="text_4">
      <!-- 300 -->
      <defs>
       <path d="M 40.578125 39.3125 
Q 47.65625 37.796875 51.625 33 
Q 55.609375 28.21875 55.609375 21.1875 
Q 55.609375 10.40625 48.1875 4.484375 
Q 40.765625 -1.421875 27.09375 -1.421875 
Q 22.515625 -1.421875 17.65625 -0.515625 
Q 12.796875 0.390625 7.625 2.203125 
L 7.625 11.71875 
Q 11.71875 9.328125 16.59375 8.109375 
Q 21.484375 6.890625 26.8125 6.890625 
Q 36.078125 6.890625 40.9375 10.546875 
Q 45.796875 14.203125 45.796875 21.1875 
Q 45.796875 27.640625 41.28125 31.265625 
Q 36.765625 34.90625 28.71875 34.90625 
L 20.21875 34.90625 
L 20.21875 43.015625 
L 29.109375 43.015625 
Q 36.375 43.015625 40.234375 45.921875 
Q 44.09375 48.828125 44.09375 54.296875 
Q 44.09375 59.90625 40.109375 62.90625 
Q 36.140625 65.921875 28.71875 65.921875 
Q 24.65625 65.921875 20.015625 65.03125 
Q 15.375 64.15625 9.8125 62.3125 
L 9.8125 71.09375 
Q 15.4375 72.65625 20.34375 73.4375 
Q 25.25 74.21875 29.59375 74.21875 
Q 40.828125 74.21875 47.359375 69.109375 
Q 53.90625 64.015625 53.90625 55.328125 
Q 53.90625 49.265625 50.4375 45.09375 
Q 46.96875 40.921875 40.578125 39.3125 
z
" id="DejaVuSans-51"/>
      </defs>
      <g transform="translate(567.366676 534.287237)scale(0.1 -0.1)">
       <use xlink:href="#DejaVuSans-51"/>
       <use x="63.623047" xlink:href="#DejaVuSans-48"/>
       <use x="127.246094" xlink:href="#DejaVuSans-48"/>
      </g>
     </g>
    </g>
    <g id="xtick_5">
     <g id="line2d_5">
      <g>
       <use style="stroke:#000000;stroke-width:0.8;" x="709.993901" xlink:href="#m897a60b6ae" y="519.6888"/>
      </g>
     </g>
     <g id="text_5">
      <!-- 400 -->
      <defs>
       <path d="M 37.796875 64.3125 
L 12.890625 25.390625 
L 37.796875 25.390625 
z
M 35.203125 72.90625 
L 47.609375 72.90625 
L 47.609375 25.390625 
L 58.015625 25.390625 
L 58.015625 17.1875 
L 47.609375 17.1875 
L 47.609375 0 
L 37.796875 0 
L 37.796875 17.1875 
L 4.890625 17.1875 
L 4.890625 26.703125 
z
" id="DejaVuSans-52"/>
      </defs>
      <g transform="translate(700.450151 534.287237)scale(0.1 -0.1)">
       <use xlink:href="#DejaVuSans-52"/>
       <use x="63.623047" xlink:href="#DejaVuSans-48"/>
       <use x="127.246094" xlink:href="#DejaVuSans-48"/>
      </g>
     </g>
    </g>
    <g id="xtick_6">
     <g id="line2d_6">
      <g>
       <use style="stroke:#000000;stroke-width:0.8;" x="843.077376" xlink:href="#m897a60b6ae" y="519.6888"/>
      </g>
     </g>
     <g id="text_6">
      <!-- 500 -->
      <defs>
       <path d="M 10.796875 72.90625 
L 49.515625 72.90625 
L 49.515625 64.59375 
L 19.828125 64.59375 
L 19.828125 46.734375 
Q 21.96875 47.46875 24.109375 47.828125 
Q 26.265625 48.1875 28.421875 48.1875 
Q 40.625 48.1875 47.75 41.5 
Q 54.890625 34.8125 54.890625 23.390625 
Q 54.890625 11.625 47.5625 5.09375 
Q 40.234375 -1.421875 26.90625 -1.421875 
Q 22.3125 -1.421875 17.546875 -0.640625 
Q 12.796875 0.140625 7.71875 1.703125 
L 7.71875 11.625 
Q 12.109375 9.234375 16.796875 8.0625 
Q 21.484375 6.890625 26.703125 6.890625 
Q 35.15625 6.890625 40.078125 11.328125 
Q 45.015625 15.765625 45.015625 23.390625 
Q 45.015625 31 40.078125 35.4375 
Q 35.15625 39.890625 26.703125 39.890625 
Q 22.75 39.890625 18.8125 39.015625 
Q 14.890625 38.140625 10.796875 36.28125 
z
" id="DejaVuSans-53"/>
      </defs>
      <g transform="translate(833.533626 534.287237)scale(0.1 -0.1)">
       <use xlink:href="#DejaVuSans-53"/>
       <use x="63.623047" xlink:href="#DejaVuSans-48"/>
       <use x="127.246094" xlink:href="#DejaVuSans-48"/>
      </g>
     </g>
    </g>
    <g id="xtick_7">
     <g id="line2d_7">
      <g>
       <use style="stroke:#000000;stroke-width:0.8;" x="976.160852" xlink:href="#m897a60b6ae" y="519.6888"/>
      </g>
     </g>
     <g id="text_7">
      <!-- 600 -->
      <defs>
       <path d="M 33.015625 40.375 
Q 26.375 40.375 22.484375 35.828125 
Q 18.609375 31.296875 18.609375 23.390625 
Q 18.609375 15.53125 22.484375 10.953125 
Q 26.375 6.390625 33.015625 6.390625 
Q 39.65625 6.390625 43.53125 10.953125 
Q 47.40625 15.53125 47.40625 23.390625 
Q 47.40625 31.296875 43.53125 35.828125 
Q 39.65625 40.375 33.015625 40.375 
z
M 52.59375 71.296875 
L 52.59375 62.3125 
Q 48.875 64.0625 45.09375 64.984375 
Q 41.3125 65.921875 37.59375 65.921875 
Q 27.828125 65.921875 22.671875 59.328125 
Q 17.53125 52.734375 16.796875 39.40625 
Q 19.671875 43.65625 24.015625 45.921875 
Q 28.375 48.1875 33.59375 48.1875 
Q 44.578125 48.1875 50.953125 41.515625 
Q 57.328125 34.859375 57.328125 23.390625 
Q 57.328125 12.15625 50.6875 5.359375 
Q 44.046875 -1.421875 33.015625 -1.421875 
Q 20.359375 -1.421875 13.671875 8.265625 
Q 6.984375 17.96875 6.984375 36.375 
Q 6.984375 53.65625 15.1875 63.9375 
Q 23.390625 74.21875 37.203125 74.21875 
Q 40.921875 74.21875 44.703125 73.484375 
Q 48.484375 72.75 52.59375 71.296875 
z
" id="DejaVuSans-54"/>
      </defs>
      <g transform="translate(966.617102 534.287237)scale(0.1 -0.1)">
       <use xlink:href="#DejaVuSans-54"/>
       <use x="63.623047" xlink:href="#DejaVuSans-48"/>
       <use x="127.246094" xlink:href="#DejaVuSans-48"/>
      </g>
     </g>
    </g>
    <g id="text_8">
     <!-- EXCAUS -->
     <defs>
      <path d="M 9.8125 72.90625 
L 55.90625 72.90625 
L 55.90625 64.59375 
L 19.671875 64.59375 
L 19.671875 43.015625 
L 54.390625 43.015625 
L 54.390625 34.71875 
L 19.671875 34.71875 
L 19.671875 8.296875 
L 56.78125 8.296875 
L 56.78125 0 
L 9.8125 0 
z
" id="DejaVuSans-69"/>
      <path d="M 6.296875 72.90625 
L 16.890625 72.90625 
L 35.015625 45.796875 
L 53.21875 72.90625 
L 63.8125 72.90625 
L 40.375 37.890625 
L 65.375 0 
L 54.78125 0 
L 34.28125 31 
L 13.625 0 
L 2.984375 0 
L 29 38.921875 
z
" id="DejaVuSans-88"/>
      <path d="M 64.40625 67.28125 
L 64.40625 56.890625 
Q 59.421875 61.53125 53.78125 63.8125 
Q 48.140625 66.109375 41.796875 66.109375 
Q 29.296875 66.109375 22.65625 58.46875 
Q 16.015625 50.828125 16.015625 36.375 
Q 16.015625 21.96875 22.65625 14.328125 
Q 29.296875 6.6875 41.796875 6.6875 
Q 48.140625 6.6875 53.78125 8.984375 
Q 59.421875 11.28125 64.40625 15.921875 
L 64.40625 5.609375 
Q 59.234375 2.09375 53.4375 0.328125 
Q 47.65625 -1.421875 41.21875 -1.421875 
Q 24.65625 -1.421875 15.125 8.703125 
Q 5.609375 18.84375 5.609375 36.375 
Q 5.609375 53.953125 15.125 64.078125 
Q 24.65625 74.21875 41.21875 74.21875 
Q 47.75 74.21875 53.53125 72.484375 
Q 59.328125 70.75 64.40625 67.28125 
z
" id="DejaVuSans-67"/>
      <path d="M 34.1875 63.1875 
L 20.796875 26.90625 
L 47.609375 26.90625 
z
M 28.609375 72.90625 
L 39.796875 72.90625 
L 67.578125 0 
L 57.328125 0 
L 50.6875 18.703125 
L 17.828125 18.703125 
L 11.1875 0 
L 0.78125 0 
z
" id="DejaVuSans-65"/>
      <path d="M 8.6875 72.90625 
L 18.609375 72.90625 
L 18.609375 28.609375 
Q 18.609375 16.890625 22.84375 11.734375 
Q 27.09375 6.59375 36.625 6.59375 
Q 46.09375 6.59375 50.34375 11.734375 
Q 54.59375 16.890625 54.59375 28.609375 
L 54.59375 72.90625 
L 64.5 72.90625 
L 64.5 27.390625 
Q 64.5 13.140625 57.4375 5.859375 
Q 50.390625 -1.421875 36.625 -1.421875 
Q 22.796875 -1.421875 15.734375 5.859375 
Q 8.6875 13.140625 8.6875 27.390625 
z
" id="DejaVuSans-85"/>
      <path d="M 53.515625 70.515625 
L 53.515625 60.890625 
Q 47.90625 63.578125 42.921875 64.890625 
Q 37.9375 66.21875 33.296875 66.21875 
Q 25.25 66.21875 20.875 63.09375 
Q 16.5 59.96875 16.5 54.203125 
Q 16.5 49.359375 19.40625 46.890625 
Q 22.3125 44.4375 30.421875 42.921875 
L 36.375 41.703125 
Q 47.40625 39.59375 52.65625 34.296875 
Q 57.90625 29 57.90625 20.125 
Q 57.90625 9.515625 50.796875 4.046875 
Q 43.703125 -1.421875 29.984375 -1.421875 
Q 24.8125 -1.421875 18.96875 -0.25 
Q 13.140625 0.921875 6.890625 3.21875 
L 6.890625 13.375 
Q 12.890625 10.015625 18.65625 8.296875 
Q 24.421875 6.59375 29.984375 6.59375 
Q 38.421875 6.59375 43.015625 9.90625 
Q 47.609375 13.234375 47.609375 19.390625 
Q 47.609375 24.75 44.3125 27.78125 
Q 41.015625 30.8125 33.5 32.328125 
L 27.484375 33.5 
Q 16.453125 35.6875 11.515625 40.375 
Q 6.59375 45.0625 6.59375 53.421875 
Q 6.59375 63.09375 13.40625 68.65625 
Q 20.21875 74.21875 32.171875 74.21875 
Q 37.3125 74.21875 42.625 73.28125 
Q 47.953125 72.359375 53.515625 70.515625 
z
" id="DejaVuSans-83"/>
     </defs>
     <g transform="translate(537.773672 551.764581)scale(0.15 -0.15)">
      <use xlink:href="#DejaVuSans-69"/>
      <use x="63.183594" xlink:href="#DejaVuSans-88"/>
      <use x="131.580078" xlink:href="#DejaVuSans-67"/>
      <use x="201.404297" xlink:href="#DejaVuSans-65"/>
      <use x="269.8125" xlink:href="#DejaVuSans-85"/>
      <use x="343.005859" xlink:href="#DejaVuSans-83"/>
     </g>
    </g>
   </g>
   <g id="matplotlib.axis_2">
    <g id="ytick_1">
     <g id="line2d_8">
      <defs>
       <path d="M 0 0 
L -3.5 0 
" id="mef68e4cdc1" style="stroke:#000000;stroke-width:0.8;"/>
      </defs>
      <g>
       <use style="stroke:#000000;stroke-width:0.8;" x="138.6" xlink:href="#mef68e4cdc1" y="470.898315"/>
      </g>
     </g>
     <g id="text_9">
      <!-- 1.0 -->
      <defs>
       <path d="M 10.6875 12.40625 
L 21 12.40625 
L 21 0 
L 10.6875 0 
z
" id="DejaVuSans-46"/>
      </defs>
      <g transform="translate(115.696875 474.697534)scale(0.1 -0.1)">
       <use xlink:href="#DejaVuSans-49"/>
       <use x="63.623047" xlink:href="#DejaVuSans-46"/>
       <use x="95.410156" xlink:href="#DejaVuSans-48"/>
      </g>
     </g>
    </g>
    <g id="ytick_2">
     <g id="line2d_9">
      <g>
       <use style="stroke:#000000;stroke-width:0.8;" x="138.6" xlink:href="#mef68e4cdc1" y="407.468147"/>
      </g>
     </g>
     <g id="text_10">
      <!-- 1.1 -->
      <g transform="translate(115.696875 411.267366)scale(0.1 -0.1)">
       <use xlink:href="#DejaVuSans-49"/>
       <use x="63.623047" xlink:href="#DejaVuSans-46"/>
       <use x="95.410156" xlink:href="#DejaVuSans-49"/>
      </g>
     </g>
    </g>
    <g id="ytick_3">
     <g id="line2d_10">
      <g>
       <use style="stroke:#000000;stroke-width:0.8;" x="138.6" xlink:href="#mef68e4cdc1" y="344.03798"/>
      </g>
     </g>
     <g id="text_11">
      <!-- 1.2 -->
      <g transform="translate(115.696875 347.837199)scale(0.1 -0.1)">
       <use xlink:href="#DejaVuSans-49"/>
       <use x="63.623047" xlink:href="#DejaVuSans-46"/>
       <use x="95.410156" xlink:href="#DejaVuSans-50"/>
      </g>
     </g>
    </g>
    <g id="ytick_4">
     <g id="line2d_11">
      <g>
       <use style="stroke:#000000;stroke-width:0.8;" x="138.6" xlink:href="#mef68e4cdc1" y="280.607812"/>
      </g>
     </g>
     <g id="text_12">
      <!-- 1.3 -->
      <g transform="translate(115.696875 284.407031)scale(0.1 -0.1)">
       <use xlink:href="#DejaVuSans-49"/>
       <use x="63.623047" xlink:href="#DejaVuSans-46"/>
       <use x="95.410156" xlink:href="#DejaVuSans-51"/>
      </g>
     </g>
    </g>
    <g id="ytick_5">
     <g id="line2d_12">
      <g>
       <use style="stroke:#000000;stroke-width:0.8;" x="138.6" xlink:href="#mef68e4cdc1" y="217.177645"/>
      </g>
     </g>
     <g id="text_13">
      <!-- 1.4 -->
      <g transform="translate(115.696875 220.976863)scale(0.1 -0.1)">
       <use xlink:href="#DejaVuSans-49"/>
       <use x="63.623047" xlink:href="#DejaVuSans-46"/>
       <use x="95.410156" xlink:href="#DejaVuSans-52"/>
      </g>
     </g>
    </g>
    <g id="ytick_6">
     <g id="line2d_13">
      <g>
       <use style="stroke:#000000;stroke-width:0.8;" x="138.6" xlink:href="#mef68e4cdc1" y="153.747477"/>
      </g>
     </g>
     <g id="text_14">
      <!-- 1.5 -->
      <g transform="translate(115.696875 157.546696)scale(0.1 -0.1)">
       <use xlink:href="#DejaVuSans-49"/>
       <use x="63.623047" xlink:href="#DejaVuSans-46"/>
       <use x="95.410156" xlink:href="#DejaVuSans-53"/>
      </g>
     </g>
    </g>
    <g id="ytick_7">
     <g id="line2d_14">
      <g>
       <use style="stroke:#000000;stroke-width:0.8;" x="138.6" xlink:href="#mef68e4cdc1" y="90.317309"/>
      </g>
     </g>
     <g id="text_15">
      <!-- 1.6 -->
      <g transform="translate(115.696875 94.116528)scale(0.1 -0.1)">
       <use xlink:href="#DejaVuSans-49"/>
       <use x="63.623047" xlink:href="#DejaVuSans-46"/>
       <use x="95.410156" xlink:href="#DejaVuSans-54"/>
      </g>
     </g>
    </g>
    <g id="text_16">
     <!-- Time index -->
     <defs>
      <path d="M -0.296875 72.90625 
L 61.375 72.90625 
L 61.375 64.59375 
L 35.5 64.59375 
L 35.5 0 
L 25.59375 0 
L 25.59375 64.59375 
L -0.296875 64.59375 
z
" id="DejaVuSans-84"/>
      <path d="M 9.421875 54.6875 
L 18.40625 54.6875 
L 18.40625 0 
L 9.421875 0 
z
M 9.421875 75.984375 
L 18.40625 75.984375 
L 18.40625 64.59375 
L 9.421875 64.59375 
z
" id="DejaVuSans-105"/>
      <path d="M 52 44.1875 
Q 55.375 50.25 60.0625 53.125 
Q 64.75 56 71.09375 56 
Q 79.640625 56 84.28125 50.015625 
Q 88.921875 44.046875 88.921875 33.015625 
L 88.921875 0 
L 79.890625 0 
L 79.890625 32.71875 
Q 79.890625 40.578125 77.09375 44.375 
Q 74.3125 48.1875 68.609375 48.1875 
Q 61.625 48.1875 57.5625 43.546875 
Q 53.515625 38.921875 53.515625 30.90625 
L 53.515625 0 
L 44.484375 0 
L 44.484375 32.71875 
Q 44.484375 40.625 41.703125 44.40625 
Q 38.921875 48.1875 33.109375 48.1875 
Q 26.21875 48.1875 22.15625 43.53125 
Q 18.109375 38.875 18.109375 30.90625 
L 18.109375 0 
L 9.078125 0 
L 9.078125 54.6875 
L 18.109375 54.6875 
L 18.109375 46.1875 
Q 21.1875 51.21875 25.484375 53.609375 
Q 29.78125 56 35.6875 56 
Q 41.65625 56 45.828125 52.96875 
Q 50 49.953125 52 44.1875 
z
" id="DejaVuSans-109"/>
      <path d="M 56.203125 29.59375 
L 56.203125 25.203125 
L 14.890625 25.203125 
Q 15.484375 15.921875 20.484375 11.0625 
Q 25.484375 6.203125 34.421875 6.203125 
Q 39.59375 6.203125 44.453125 7.46875 
Q 49.3125 8.734375 54.109375 11.28125 
L 54.109375 2.78125 
Q 49.265625 0.734375 44.1875 -0.34375 
Q 39.109375 -1.421875 33.890625 -1.421875 
Q 20.796875 -1.421875 13.15625 6.1875 
Q 5.515625 13.8125 5.515625 26.8125 
Q 5.515625 40.234375 12.765625 48.109375 
Q 20.015625 56 32.328125 56 
Q 43.359375 56 49.78125 48.890625 
Q 56.203125 41.796875 56.203125 29.59375 
z
M 47.21875 32.234375 
Q 47.125 39.59375 43.09375 43.984375 
Q 39.0625 48.390625 32.421875 48.390625 
Q 24.90625 48.390625 20.390625 44.140625 
Q 15.875 39.890625 15.1875 32.171875 
z
" id="DejaVuSans-101"/>
      <path id="DejaVuSans-32"/>
      <path d="M 54.890625 33.015625 
L 54.890625 0 
L 45.90625 0 
L 45.90625 32.71875 
Q 45.90625 40.484375 42.875 44.328125 
Q 39.84375 48.1875 33.796875 48.1875 
Q 26.515625 48.1875 22.3125 43.546875 
Q 18.109375 38.921875 18.109375 30.90625 
L 18.109375 0 
L 9.078125 0 
L 9.078125 54.6875 
L 18.109375 54.6875 
L 18.109375 46.1875 
Q 21.34375 51.125 25.703125 53.5625 
Q 30.078125 56 35.796875 56 
Q 45.21875 56 50.046875 50.171875 
Q 54.890625 44.34375 54.890625 33.015625 
z
" id="DejaVuSans-110"/>
      <path d="M 45.40625 46.390625 
L 45.40625 75.984375 
L 54.390625 75.984375 
L 54.390625 0 
L 45.40625 0 
L 45.40625 8.203125 
Q 42.578125 3.328125 38.25 0.953125 
Q 33.9375 -1.421875 27.875 -1.421875 
Q 17.96875 -1.421875 11.734375 6.484375 
Q 5.515625 14.40625 5.515625 27.296875 
Q 5.515625 40.1875 11.734375 48.09375 
Q 17.96875 56 27.875 56 
Q 33.9375 56 38.25 53.625 
Q 42.578125 51.265625 45.40625 46.390625 
z
M 14.796875 27.296875 
Q 14.796875 17.390625 18.875 11.75 
Q 22.953125 6.109375 30.078125 6.109375 
Q 37.203125 6.109375 41.296875 11.75 
Q 45.40625 17.390625 45.40625 27.296875 
Q 45.40625 37.203125 41.296875 42.84375 
Q 37.203125 48.484375 30.078125 48.484375 
Q 22.953125 48.484375 18.875 42.84375 
Q 14.796875 37.203125 14.796875 27.296875 
z
" id="DejaVuSans-100"/>
      <path d="M 54.890625 54.6875 
L 35.109375 28.078125 
L 55.90625 0 
L 45.3125 0 
L 29.390625 21.484375 
L 13.484375 0 
L 2.875 0 
L 24.125 28.609375 
L 4.6875 54.6875 
L 15.28125 54.6875 
L 29.78125 35.203125 
L 44.28125 54.6875 
z
" id="DejaVuSans-120"/>
     </defs>
     <g transform="translate(108.577344 336.495225)rotate(-90)scale(0.15 -0.15)">
      <use xlink:href="#DejaVuSans-84"/>
      <use x="61.037109" xlink:href="#DejaVuSans-105"/>
      <use x="88.820312" xlink:href="#DejaVuSans-109"/>
      <use x="186.232422" xlink:href="#DejaVuSans-101"/>
      <use x="247.755859" xlink:href="#DejaVuSans-32"/>
      <use x="279.542969" xlink:href="#DejaVuSans-105"/>
      <use x="307.326172" xlink:href="#DejaVuSans-110"/>
      <use x="370.705078" xlink:href="#DejaVuSans-100"/>
      <use x="434.181641" xlink:href="#DejaVuSans-101"/>
      <use x="495.689453" xlink:href="#DejaVuSans-120"/>
     </g>
    </g>
   </g>
   <g id="line2d_15">
    <path clip-path="url(#p9ccd180629)" d="M 177.66 463.413555 
L 178.990835 466.141053 
L 180.32167 466.838784 
L 181.652504 466.014192 
L 182.983339 465.379891 
L 184.314174 457.387689 
L 185.645009 457.387689 
L 186.975843 462.652393 
L 188.306678 462.652393 
L 189.637513 467.917097 
L 190.968348 468.424539 
L 192.299182 471.342326 
L 193.630017 467.155935 
L 194.960852 467.917097 
L 196.291687 471.849768 
L 197.622521 473.625812 
L 198.953356 477.939064 
L 200.284191 483.901499 
L 201.615026 481.047142 
L 202.94586 482.062025 
L 204.276695 481.681444 
L 205.60753 481.871734 
L 206.938365 478.890516 
L 208.269199 472.92808 
L 209.600034 471.342326 
L 210.930869 473.689242 
L 212.261704 472.991511 
L 213.592538 470.454304 
L 214.923373 470.390874 
L 216.254208 471.913198 
L 217.585043 471.215466 
L 220.246712 465.633611 
L 221.577547 470.200583 
L 222.908382 471.469187 
L 224.239216 471.278896 
L 225.570051 476.289879 
L 226.900886 485.740974 
L 229.562555 491.449689 
L 230.89339 494.811488 
L 232.224225 492.210851 
L 233.55506 485.931265 
L 234.885894 483.647779 
L 236.216729 479.524818 
L 237.547564 481.681444 
L 238.878399 478.890516 
L 240.209233 478.383075 
L 241.540068 474.196684 
L 242.870903 470.644594 
L 244.201738 470.581164 
L 245.532572 463.920997 
L 246.863407 452.757287 
L 248.194242 454.152751 
L 250.855911 448.444036 
L 252.186746 454.216181 
L 253.517581 454.977343 
L 254.848416 462.081522 
L 256.17925 462.081522 
L 257.510085 466.775354 
L 258.84092 475.021276 
L 260.171755 479.841969 
L 261.502589 481.300863 
L 262.833424 483.457488 
L 264.164259 487.643879 
L 265.495094 488.531902 
L 266.825928 480.15912 
L 268.156763 486.692427 
L 269.487598 488.214751 
L 270.818433 479.841969 
L 272.149267 459.290594 
L 273.480102 464.365008 
L 274.810937 453.201298 
L 276.141772 438.358639 
L 277.472606 438.231779 
L 278.803441 440.071254 
L 280.134276 434.299108 
L 281.465111 432.079053 
L 282.795945 423.325689 
L 284.12678 424.404002 
L 285.457615 408.165879 
L 286.78845 401.569142 
L 288.119284 409.180762 
L 289.450119 406.706985 
L 292.111789 391.103164 
L 293.442624 381.017768 
L 294.773458 395.670136 
L 296.104293 393.640371 
L 297.435128 391.864326 
L 298.765963 381.84236 
L 300.096797 365.350516 
L 301.427632 354.947969 
L 302.758467 361.100695 
L 304.089302 356.850874 
L 305.420136 350.444427 
L 306.750971 346.828907 
L 308.081806 360.593254 
L 309.412641 378.03655 
L 310.743475 372.200974 
L 312.07431 361.544706 
L 313.405145 366.93627 
L 314.73598 362.686449 
L 316.066814 366.048248 
L 317.397649 359.641801 
L 318.728484 356.914304 
L 320.059319 363.06703 
L 321.390153 366.87284 
L 322.720988 372.264404 
L 324.051823 361.100695 
L 325.382658 352.854773 
L 326.713492 360.466393 
L 328.044327 374.738181 
L 329.375162 374.29417 
L 330.705997 369.917488 
L 332.036831 366.428829 
L 333.367666 363.637902 
L 334.698501 352.664483 
L 336.029336 346.067745 
L 337.36017 349.810125 
L 338.691005 345.052863 
L 340.02184 349.492974 
L 341.352675 349.746695 
L 342.683509 343.403678 
L 344.014344 341.437343 
L 345.345179 337.250952 
L 346.676014 329.322181 
L 348.006848 343.530539 
L 349.337683 342.198505 
L 350.668518 352.157041 
L 351.999353 353.489075 
L 353.330187 348.731812 
L 354.661022 335.157756 
L 355.991857 331.034796 
L 357.322692 328.053578 
L 358.653526 322.725444 
L 359.984361 296.084773 
L 361.315196 299.636863 
L 362.646031 315.367544 
L 363.976865 321.964282 
L 365.3077 324.945499 
L 366.638535 327.419276 
L 367.96937 319.617365 
L 369.300204 325.833522 
L 370.631039 326.467823 
L 371.961874 327.355846 
L 373.292709 323.423175 
L 374.623543 325.516371 
L 375.954378 323.550036 
L 377.285213 323.550036 
L 378.616048 322.598583 
L 379.946882 323.359745 
L 381.277717 323.740326 
L 382.608552 320.759108 
L 383.939387 314.289231 
L 385.270221 313.337779 
L 386.601056 313.591499 
L 387.931891 299.827153 
L 389.262726 293.547566 
L 390.59356 284.159902 
L 391.924395 278.070606 
L 393.25523 265.511432 
L 394.586065 278.387756 
L 395.916899 271.410438 
L 397.247734 268.55608 
L 398.578569 269.951544 
L 399.909404 267.858349 
L 401.240239 265.384572 
L 403.901908 227.326472 
L 405.232743 238.870762 
L 406.563578 232.654606 
L 407.894412 237.729019 
L 409.225247 247.243544 
L 410.556082 244.135466 
L 411.886917 236.016404 
L 413.217751 238.299891 
L 414.548586 232.083734 
L 415.879421 220.032002 
L 417.210256 212.737533 
L 418.54109 214.450147 
L 419.871925 216.606773 
L 422.533595 232.591175 
L 423.864429 223.584092 
L 425.195264 229.356237 
L 426.526099 224.472114 
L 427.856934 225.233276 
L 429.187768 224.472114 
L 430.518603 225.867578 
L 431.849438 229.800248 
L 433.180273 242.169131 
L 434.511107 259.041555 
L 435.841942 268.30236 
L 437.172777 268.42922 
L 438.503612 254.538013 
L 439.834446 256.060337 
L 441.165281 263.989108 
L 442.496116 264.369689 
L 443.826951 270.839566 
L 445.157785 274.455086 
L 446.48862 270.014974 
L 447.819455 275.85055 
L 449.15029 289.805187 
L 450.481124 300.778606 
L 451.811959 312.830337 
L 453.142794 321.647131 
L 454.473629 320.378527 
L 455.804463 332.87427 
L 457.135298 339.280717 
L 458.466133 329.00503 
L 459.796968 327.102125 
L 461.127802 340.549321 
L 462.458637 332.239969 
L 463.789472 346.448326 
L 465.120307 349.556404 
L 466.451141 350.951868 
L 467.781976 346.955768 
L 469.112811 351.142159 
L 470.443646 348.795242 
L 471.77448 344.926002 
L 473.105315 350.951868 
L 474.43615 359.38808 
L 475.766985 354.947969 
L 477.097819 359.958952 
L 478.428654 363.257321 
L 479.759489 368.585455 
L 481.090324 361.798427 
L 482.421158 346.258036 
L 485.082828 366.80941 
L 486.413663 360.085812 
L 487.744497 361.164125 
L 489.075332 371.312952 
L 490.406167 379.051432 
L 491.737002 370.48836 
L 493.067836 369.410047 
L 494.398671 367.189991 
L 495.729506 369.219756 
L 497.060341 371.947254 
L 498.391175 372.644985 
L 499.72201 371.186092 
L 502.38368 375.816494 
L 503.714514 379.622304 
L 505.045349 376.197075 
L 506.376184 378.797712 
L 507.707019 383.998985 
L 509.037853 389.771131 
L 510.368688 388.312237 
L 511.699523 377.846259 
L 513.030358 371.249522 
L 514.361193 355.138259 
L 515.692027 348.604952 
L 517.022862 352.030181 
L 518.353697 344.608851 
L 519.684532 346.575187 
L 521.015366 348.858673 
L 522.346201 349.936985 
L 523.677036 329.766192 
L 526.338705 301.286047 
L 529.000375 294.625879 
L 530.33121 305.853019 
L 531.662044 314.162371 
L 532.992879 304.647846 
L 534.323714 299.763723 
L 535.654549 293.991578 
L 536.985383 292.025242 
L 538.316218 275.533399 
L 539.647053 266.970326 
L 540.977888 263.925678 
L 542.308722 269.570963 
L 543.639557 261.071321 
L 544.970392 269.634393 
L 546.301227 253.713421 
L 547.632061 239.758784 
L 548.962896 227.960773 
L 550.293731 229.356237 
L 551.624566 227.580192 
L 552.9554 228.214494 
L 554.286235 230.941991 
L 555.61707 246.355522 
L 556.947905 248.702438 
L 558.278739 239.568494 
L 560.940409 208.804863 
L 562.271244 216.860494 
L 563.602078 212.293522 
L 564.932913 232.274025 
L 566.263748 241.97884 
L 567.594583 231.449432 
L 568.925417 241.78855 
L 570.256252 245.59436 
L 571.587087 248.321857 
L 572.917922 251.556796 
L 574.248756 246.736103 
L 575.579591 236.650706 
L 576.910426 238.17303 
L 578.241261 232.908326 
L 579.572095 238.997622 
L 580.90293 243.057153 
L 582.233765 236.650706 
L 583.5646 238.870762 
L 584.895434 236.396985 
L 586.226269 234.811231 
L 587.557104 236.587276 
L 588.887939 248.385287 
L 590.218773 256.440918 
L 591.549608 241.154248 
L 592.880443 249.273309 
L 594.211278 245.340639 
L 595.542112 234.620941 
L 596.872947 220.856594 
L 598.203782 229.609958 
L 599.534617 227.136181 
L 600.865451 231.449432 
L 602.196286 223.203511 
L 603.527121 225.296706 
L 604.857956 225.486997 
L 606.18879 209.058583 
L 608.85046 191.234706 
L 610.181295 195.991969 
L 611.512129 206.648237 
L 612.842964 198.275455 
L 614.173799 188.507209 
L 616.835468 162.056829 
L 618.166303 131.800639 
L 619.497138 139.919701 
L 620.827973 125.077041 
L 622.158807 128.121689 
L 623.489642 126.282215 
L 624.820477 141.442025 
L 626.151312 155.206371 
L 627.482147 142.583768 
L 628.812981 161.295667 
L 630.143816 178.421812 
L 631.474651 173.093678 
L 632.805486 160.724796 
L 634.13632 158.060728 
L 635.467155 168.272985 
L 636.79799 167.955835 
L 638.128825 174.425712 
L 639.459659 171.381064 
L 640.790494 186.350583 
L 642.121329 184.701399 
L 643.452164 178.612103 
L 644.782998 173.474259 
L 646.113833 156.474974 
L 647.444668 168.336416 
L 648.775503 167.828974 
L 650.106337 164.657466 
L 651.437172 162.37398 
L 652.768007 145.818706 
L 654.098842 126.726226 
L 655.429676 139.85627 
L 656.760511 151.717712 
L 658.091346 140.046561 
L 659.422181 116.513969 
L 660.753015 117.08484 
L 663.414685 138.207086 
L 664.74552 134.210985 
L 666.076354 128.43884 
L 667.407189 110.678393 
L 668.738024 108.268047 
L 670.068859 95.264863 
L 671.399693 103.764505 
L 672.730528 90.5076 
L 674.061363 92.600796 
L 675.392198 98.11922 
L 676.723032 102.051891 
L 678.053867 121.905533 
L 679.384702 133.576684 
L 680.715537 124.823321 
L 682.046371 109.726941 
L 683.377206 105.47712 
L 684.708041 104.271946 
L 686.038876 108.394907 
L 687.36971 116.196818 
L 688.700545 127.487388 
L 690.03138 146.072427 
L 691.362215 168.907287 
L 692.693049 180.261287 
L 694.023884 227.326472 
L 695.354719 247.306974 
L 696.685554 228.531645 
L 698.016388 219.524561 
L 699.347223 240.393086 
L 700.678058 266.589745 
L 702.008893 272.361891 
L 703.339727 272.488751 
L 704.670562 283.271879 
L 706.001397 261.642192 
L 707.332232 262.466784 
L 708.663066 253.967142 
L 709.993901 230.56141 
L 711.324736 243.945175 
L 712.655571 266.336025 
L 713.986405 272.552181 
L 715.31724 288.156002 
L 716.648075 314.289231 
L 717.97891 346.067745 
L 719.309744 332.049678 
L 720.640579 328.307298 
L 721.971414 318.602483 
L 723.302249 333.889153 
L 725.963918 308.834237 
L 727.294753 318.539053 
L 729.956422 341.310483 
L 731.287257 358.182907 
L 732.618092 358.373198 
L 733.948927 355.772561 
L 735.279761 368.458594 
L 736.610596 371.186092 
L 737.941431 376.450796 
L 739.272266 371.122661 
L 740.603101 379.495444 
L 741.933935 401.125131 
L 743.26477 398.778215 
L 744.595605 388.819678 
L 745.92644 395.923857 
L 747.257274 397.255891 
L 748.588109 389.39055 
L 749.918944 384.696717 
L 751.249779 373.723298 
L 752.580613 359.07093 
L 753.911448 362.432728 
L 755.242283 364.208773 
L 756.573118 385.267589 
L 757.903952 410.576226 
L 759.234787 429.605276 
L 760.565622 439.056371 
L 761.896457 434.172248 
L 763.227291 453.96246 
L 764.558126 486.502136 
L 765.888961 491.70341 
L 767.219796 469.566282 
L 768.55063 464.618728 
L 769.881465 471.786337 
L 771.2123 469.05884 
L 772.543135 462.208382 
L 773.873969 471.342326 
L 775.204804 460.368907 
L 776.535639 462.652393 
L 777.866474 436.963175 
L 779.197308 433.981958 
L 780.528143 353.742796 
L 781.858978 333.191421 
L 783.189813 322.662013 
L 784.520647 328.307298 
L 787.182317 303.125522 
L 788.513152 328.687879 
L 789.843986 373.977019 
L 791.174821 390.722583 
L 792.505656 392.942639 
L 793.836491 415.587209 
L 795.167325 419.139298 
L 796.49816 436.202013 
L 797.828995 433.284226 
L 799.15983 436.836315 
L 800.490664 443.115902 
L 801.821499 434.616259 
L 803.152334 456.372807 
L 804.483169 467.599946 
L 805.814003 445.335958 
L 807.144838 447.048572 
L 808.475673 444.130784 
L 809.806508 445.272527 
L 811.137342 449.96636 
L 812.468177 459.544315 
L 815.129847 465.760472 
L 816.460681 474.767555 
L 817.791516 478.763656 
L 819.122351 485.740974 
L 820.453186 497.538985 
L 821.78402 491.195969 
L 823.114855 485.740974 
L 824.44569 499.2516 
L 825.776525 482.506036 
L 827.107359 469.312561 
L 828.438194 458.339142 
L 829.769029 455.167634 
L 831.099864 455.992226 
L 832.430698 462.652393 
L 833.761533 472.991511 
L 835.092368 474.830985 
L 836.423203 475.465287 
L 839.084872 453.137868 
L 840.415707 461.891231 
L 841.746542 475.719008 
L 843.077376 484.662661 
L 844.408211 479.017377 
L 845.739046 472.80122 
L 847.069881 477.368192 
L 848.400716 475.909298 
L 849.73155 464.682159 
L 851.062385 455.421354 
L 852.39322 459.036874 
L 853.724055 458.466002 
L 855.054889 450.981242 
L 856.385724 445.399388 
L 857.716559 445.082237 
L 859.047394 449.205198 
L 860.378228 447.873164 
L 861.709063 440.071254 
L 863.039898 430.366438 
L 864.370733 411.273958 
L 865.701567 404.042918 
L 867.032402 400.68112 
L 868.363237 407.975589 
L 869.694072 414.191745 
L 871.024906 418.251276 
L 872.355741 424.023421 
L 873.686576 412.16198 
L 875.017411 406.770416 
L 876.348245 394.020952 
L 877.67908 386.853343 
L 879.009915 373.723298 
L 880.34075 336.299499 
L 881.671584 312.386326 
L 883.002419 304.838136 
L 884.333254 322.662013 
L 885.664089 332.87427 
L 886.994923 320.885969 
L 888.325758 289.297745 
L 889.656593 271.283578 
L 890.987428 263.735388 
L 892.318262 276.04084 
L 893.649097 262.910796 
L 894.979932 235.382103 
L 896.310767 203.98417 
L 897.641601 230.053969 
L 898.972436 266.272594 
L 900.303271 292.152103 
L 901.634106 284.096472 
L 902.96494 287.33141 
L 904.295775 277.309444 
L 905.62661 280.734673 
L 906.957445 273.757354 
L 908.288279 264.68684 
L 909.619114 253.07912 
L 910.949949 259.104985 
L 912.280784 269.000092 
L 913.611618 273.693924 
L 914.942453 256.060337 
L 916.273288 252.888829 
L 917.604123 242.169131 
L 918.934957 261.895913 
L 920.265792 300.271164 
L 921.596627 305.472438 
L 922.927462 326.340963 
L 924.258296 305.535868 
L 925.589131 295.00646 
L 926.919966 295.260181 
L 928.250801 316.826438 
L 929.581635 306.741041 
L 930.91247 284.857634 
L 932.243305 297.607097 
L 933.57414 289.107455 
L 934.904974 272.679041 
L 936.235809 272.1716 
L 937.566644 277.943745 
L 938.897479 278.451187 
L 940.228313 280.354092 
L 941.559148 267.604628 
L 942.889983 252.952259 
L 944.220818 261.578762 
L 945.551652 267.350907 
L 946.882487 257.07522 
L 948.213322 256.631209 
L 949.544157 251.429935 
L 952.205826 273.947645 
L 953.536661 263.291377 
L 954.867496 265.321142 
L 956.19833 268.619511 
L 957.529165 265.574863 
L 958.86 269.888114 
L 958.86 269.888114 
" style="fill:none;stroke:#008000;stroke-linecap:square;stroke-width:1.5;"/>
   </g>
   <g id="line2d_16">
    <path clip-path="url(#p9ccd180629)" d="M 946.882487 260.947408 
L 948.213322 260.026514 
L 949.544157 261.004568 
L 950.874991 263.41646 
L 952.205826 268.046881 
L 953.536661 273.202656 
L 954.867496 274.284189 
L 956.19833 277.394194 
L 957.529165 275.587379 
L 958.86 274.705704 
" style="fill:none;stroke:#0000ff;stroke-linecap:square;stroke-width:1.5;"/>
   </g>
   <g id="line2d_17">
    <path clip-path="url(#p9ccd180629)" d="M 946.882487 499.2516 
L 946.882487 90.5076 
" style="fill:none;stroke:#000000;stroke-linecap:square;"/>
   </g>
   <g id="patch_3">
    <path d="M 138.6 519.6888 
L 138.6 70.0704 
" style="fill:none;stroke:#000000;stroke-linecap:square;stroke-linejoin:miter;stroke-width:0.8;"/>
   </g>
   <g id="patch_4">
    <path d="M 997.92 519.6888 
L 997.92 70.0704 
" style="fill:none;stroke:#000000;stroke-linecap:square;stroke-linejoin:miter;stroke-width:0.8;"/>
   </g>
   <g id="patch_5">
    <path d="M 138.6 519.6888 
L 997.92 519.6888 
" style="fill:none;stroke:#000000;stroke-linecap:square;stroke-linejoin:miter;stroke-width:0.8;"/>
   </g>
   <g id="patch_6">
    <path d="M 138.6 70.0704 
L 997.92 70.0704 
" style="fill:none;stroke:#000000;stroke-linecap:square;stroke-linejoin:miter;stroke-width:0.8;"/>
   </g>
   <g id="legend_1">
    <g id="patch_7">
     <path d="M 149.1 126.104775 
L 297.907031 126.104775 
Q 300.907031 126.104775 300.907031 123.104775 
L 300.907031 80.5704 
Q 300.907031 77.5704 297.907031 77.5704 
L 149.1 77.5704 
Q 146.1 77.5704 146.1 80.5704 
L 146.1 123.104775 
Q 146.1 126.104775 149.1 126.104775 
z
" style="fill:#ffffff;opacity:0.8;stroke:#cccccc;stroke-linejoin:miter;"/>
    </g>
    <g id="line2d_18">
     <path d="M 152.1 89.718056 
L 182.1 89.718056 
" style="fill:none;stroke:#008000;stroke-linecap:square;stroke-width:1.5;"/>
    </g>
    <g id="line2d_19"/>
    <g id="text_17">
     <!-- Actual values -->
     <defs>
      <path d="M 48.78125 52.59375 
L 48.78125 44.1875 
Q 44.96875 46.296875 41.140625 47.34375 
Q 37.3125 48.390625 33.40625 48.390625 
Q 24.65625 48.390625 19.8125 42.84375 
Q 14.984375 37.3125 14.984375 27.296875 
Q 14.984375 17.28125 19.8125 11.734375 
Q 24.65625 6.203125 33.40625 6.203125 
Q 37.3125 6.203125 41.140625 7.25 
Q 44.96875 8.296875 48.78125 10.40625 
L 48.78125 2.09375 
Q 45.015625 0.34375 40.984375 -0.53125 
Q 36.96875 -1.421875 32.421875 -1.421875 
Q 20.0625 -1.421875 12.78125 6.34375 
Q 5.515625 14.109375 5.515625 27.296875 
Q 5.515625 40.671875 12.859375 48.328125 
Q 20.21875 56 33.015625 56 
Q 37.15625 56 41.109375 55.140625 
Q 45.0625 54.296875 48.78125 52.59375 
z
" id="DejaVuSans-99"/>
      <path d="M 18.3125 70.21875 
L 18.3125 54.6875 
L 36.8125 54.6875 
L 36.8125 47.703125 
L 18.3125 47.703125 
L 18.3125 18.015625 
Q 18.3125 11.328125 20.140625 9.421875 
Q 21.96875 7.515625 27.59375 7.515625 
L 36.8125 7.515625 
L 36.8125 0 
L 27.59375 0 
Q 17.1875 0 13.234375 3.875 
Q 9.28125 7.765625 9.28125 18.015625 
L 9.28125 47.703125 
L 2.6875 47.703125 
L 2.6875 54.6875 
L 9.28125 54.6875 
L 9.28125 70.21875 
z
" id="DejaVuSans-116"/>
      <path d="M 8.5 21.578125 
L 8.5 54.6875 
L 17.484375 54.6875 
L 17.484375 21.921875 
Q 17.484375 14.15625 20.5 10.265625 
Q 23.53125 6.390625 29.59375 6.390625 
Q 36.859375 6.390625 41.078125 11.03125 
Q 45.3125 15.671875 45.3125 23.6875 
L 45.3125 54.6875 
L 54.296875 54.6875 
L 54.296875 0 
L 45.3125 0 
L 45.3125 8.40625 
Q 42.046875 3.421875 37.71875 1 
Q 33.40625 -1.421875 27.6875 -1.421875 
Q 18.265625 -1.421875 13.375 4.4375 
Q 8.5 10.296875 8.5 21.578125 
z
M 31.109375 56 
z
" id="DejaVuSans-117"/>
      <path d="M 34.28125 27.484375 
Q 23.390625 27.484375 19.1875 25 
Q 14.984375 22.515625 14.984375 16.5 
Q 14.984375 11.71875 18.140625 8.90625 
Q 21.296875 6.109375 26.703125 6.109375 
Q 34.1875 6.109375 38.703125 11.40625 
Q 43.21875 16.703125 43.21875 25.484375 
L 43.21875 27.484375 
z
M 52.203125 31.203125 
L 52.203125 0 
L 43.21875 0 
L 43.21875 8.296875 
Q 40.140625 3.328125 35.546875 0.953125 
Q 30.953125 -1.421875 24.3125 -1.421875 
Q 15.921875 -1.421875 10.953125 3.296875 
Q 6 8.015625 6 15.921875 
Q 6 25.140625 12.171875 29.828125 
Q 18.359375 34.515625 30.609375 34.515625 
L 43.21875 34.515625 
L 43.21875 35.40625 
Q 43.21875 41.609375 39.140625 45 
Q 35.0625 48.390625 27.6875 48.390625 
Q 23 48.390625 18.546875 47.265625 
Q 14.109375 46.140625 10.015625 43.890625 
L 10.015625 52.203125 
Q 14.9375 54.109375 19.578125 55.046875 
Q 24.21875 56 28.609375 56 
Q 40.484375 56 46.34375 49.84375 
Q 52.203125 43.703125 52.203125 31.203125 
z
" id="DejaVuSans-97"/>
      <path d="M 9.421875 75.984375 
L 18.40625 75.984375 
L 18.40625 0 
L 9.421875 0 
z
" id="DejaVuSans-108"/>
      <path d="M 2.984375 54.6875 
L 12.5 54.6875 
L 29.59375 8.796875 
L 46.6875 54.6875 
L 56.203125 54.6875 
L 35.6875 0 
L 23.484375 0 
z
" id="DejaVuSans-118"/>
      <path d="M 44.28125 53.078125 
L 44.28125 44.578125 
Q 40.484375 46.53125 36.375 47.5 
Q 32.28125 48.484375 27.875 48.484375 
Q 21.1875 48.484375 17.84375 46.4375 
Q 14.5 44.390625 14.5 40.28125 
Q 14.5 37.15625 16.890625 35.375 
Q 19.28125 33.59375 26.515625 31.984375 
L 29.59375 31.296875 
Q 39.15625 29.25 43.1875 25.515625 
Q 47.21875 21.78125 47.21875 15.09375 
Q 47.21875 7.46875 41.1875 3.015625 
Q 35.15625 -1.421875 24.609375 -1.421875 
Q 20.21875 -1.421875 15.453125 -0.5625 
Q 10.6875 0.296875 5.421875 2 
L 5.421875 11.28125 
Q 10.40625 8.6875 15.234375 7.390625 
Q 20.0625 6.109375 24.8125 6.109375 
Q 31.15625 6.109375 34.5625 8.28125 
Q 37.984375 10.453125 37.984375 14.40625 
Q 37.984375 18.0625 35.515625 20.015625 
Q 33.0625 21.96875 24.703125 23.78125 
L 21.578125 24.515625 
Q 13.234375 26.265625 9.515625 29.90625 
Q 5.8125 33.546875 5.8125 39.890625 
Q 5.8125 47.609375 11.28125 51.796875 
Q 16.75 56 26.8125 56 
Q 31.78125 56 36.171875 55.265625 
Q 40.578125 54.546875 44.28125 53.078125 
z
" id="DejaVuSans-115"/>
     </defs>
     <g transform="translate(194.1 94.968056)scale(0.15 -0.15)">
      <use xlink:href="#DejaVuSans-65"/>
      <use x="68.392578" xlink:href="#DejaVuSans-99"/>
      <use x="123.373047" xlink:href="#DejaVuSans-116"/>
      <use x="162.582031" xlink:href="#DejaVuSans-117"/>
      <use x="225.960938" xlink:href="#DejaVuSans-97"/>
      <use x="287.240234" xlink:href="#DejaVuSans-108"/>
      <use x="315.023438" xlink:href="#DejaVuSans-32"/>
      <use x="346.810547" xlink:href="#DejaVuSans-118"/>
      <use x="405.990234" xlink:href="#DejaVuSans-97"/>
      <use x="467.269531" xlink:href="#DejaVuSans-108"/>
      <use x="495.052734" xlink:href="#DejaVuSans-117"/>
      <use x="558.431641" xlink:href="#DejaVuSans-101"/>
      <use x="619.955078" xlink:href="#DejaVuSans-115"/>
     </g>
    </g>
    <g id="line2d_20">
     <path d="M 152.1 111.735244 
L 182.1 111.735244 
" style="fill:none;stroke:#0000ff;stroke-linecap:square;stroke-width:1.5;"/>
    </g>
    <g id="line2d_21"/>
    <g id="text_18">
     <!-- Predicted -->
     <defs>
      <path d="M 19.671875 64.796875 
L 19.671875 37.40625 
L 32.078125 37.40625 
Q 38.96875 37.40625 42.71875 40.96875 
Q 46.484375 44.53125 46.484375 51.125 
Q 46.484375 57.671875 42.71875 61.234375 
Q 38.96875 64.796875 32.078125 64.796875 
z
M 9.8125 72.90625 
L 32.078125 72.90625 
Q 44.34375 72.90625 50.609375 67.359375 
Q 56.890625 61.8125 56.890625 51.125 
Q 56.890625 40.328125 50.609375 34.8125 
Q 44.34375 29.296875 32.078125 29.296875 
L 19.671875 29.296875 
L 19.671875 0 
L 9.8125 0 
z
" id="DejaVuSans-80"/>
      <path d="M 41.109375 46.296875 
Q 39.59375 47.171875 37.8125 47.578125 
Q 36.03125 48 33.890625 48 
Q 26.265625 48 22.1875 43.046875 
Q 18.109375 38.09375 18.109375 28.8125 
L 18.109375 0 
L 9.078125 0 
L 9.078125 54.6875 
L 18.109375 54.6875 
L 18.109375 46.1875 
Q 20.953125 51.171875 25.484375 53.578125 
Q 30.03125 56 36.53125 56 
Q 37.453125 56 38.578125 55.875 
Q 39.703125 55.765625 41.0625 55.515625 
z
" id="DejaVuSans-114"/>
     </defs>
     <g transform="translate(194.1 116.985244)scale(0.15 -0.15)">
      <use xlink:href="#DejaVuSans-80"/>
      <use x="60.287109" xlink:href="#DejaVuSans-114"/>
      <use x="101.369141" xlink:href="#DejaVuSans-101"/>
      <use x="162.892578" xlink:href="#DejaVuSans-100"/>
      <use x="226.369141" xlink:href="#DejaVuSans-105"/>
      <use x="254.152344" xlink:href="#DejaVuSans-99"/>
      <use x="309.132812" xlink:href="#DejaVuSans-116"/>
      <use x="348.341797" xlink:href="#DejaVuSans-101"/>
      <use x="409.865234" xlink:href="#DejaVuSans-100"/>
     </g>
    </g>
   </g>
  </g>
 </g>
 <defs>
  <clipPath id="p9ccd180629">
   <rect height="449.6184" width="859.32" x="138.6" y="70.0704"/>
  </clipPath>
 </defs>
</svg>
